<?xml version="1.0" standalone="no"?>
<!DOCTYPE svg PUBLIC "-//W3C//DTD SVG 1.1//EN" "http://www.w3.org/Graphics/SVG/1.1/DTD/svg11.dtd" >
<svg xmlns="http://www.w3.org/2000/svg" version="1.1">
    <metadata>
        Created by FontForge 20150304 at Mon Apr 27 16:08:17 2015
        By CreativeDirection
        Copyright (c) 2015, Deutsche Telekom AG Product-Design
    </metadata>
    <defs>
        <font id="teleicon-outline" horiz-adv-x="0">
            <font-face
                    font-family="TeleIcon"
                    font-weight="400"
                    font-stretch="normal"
                    units-per-em="1024"
                    panose-1="0 0 0 0 0 0 0 0 0 0"
                    ascent="960"
                    descent="-64"
                    x-height="853"
                    cap-height="910"
                    bbox="-1 -64 1025 967"
                    underline-thickness="0"
                    underline-position="0"
                    unicode-range="U+0020-00FC"
            />
            <missing-glyph horiz-adv-x="374"
                           d="M34 0v682h272v-682h-272zM68 34h204v614h-204v-614z"/>
            <glyph glyph-name=".notdef" horiz-adv-x="374"
                   d="M34 0v682h272v-682h-272zM68 34h204v614h-204v-614z"/>
            <glyph glyph-name=".null"
            />
            <glyph glyph-name="nonmarkingreturn" horiz-adv-x="341"
            />
            <glyph glyph-name="space" unicode=" "
                   d="M0 0z"/>
            <glyph glyph-name="exclam" unicode="!" horiz-adv-x="1024"
                   d="M85 910h854q11 0 19.5 -8t8.5 -20v-854q0 -11 -8.5 -19.5t-19.5 -8.5h-854q-11 0 -19.5 8.5t-8.5 19.5v854q0 12 8.5 20t19.5 8zM114 57h796v796h-796v-796zM553 171h-82v88h82v-88zM549 565l-19 -253h-36l-19 253v175h74v-175z"/>
            <glyph glyph-name="quotedbl" unicode="&#x22;" horiz-adv-x="796"
                   d="M65 350l333 333l333 -333q8 -9 8 -20.5t-8 -20t-20 -8.5t-20 8l-293 293l-293 -293q-8 -8 -20 -8t-20 9t-8 19.5t8 20.5z"/>
            <glyph glyph-name="numbersign" unicode="#"
            />
            <glyph glyph-name="dollar" unicode="$" horiz-adv-x="796"
                   d="M65 617q-8 10 -8 21.5t8 19.5t20 8t20 -8l293 -293l293 293q8 8 20 8t20 -8.5t8 -20t-8 -20.5l-333 -333z"/>
            <glyph glyph-name="percent" unicode="%" horiz-adv-x="512"
                   d="M389 122l-333 333l333 333q9 8 20.5 8t20.5 -8q8 -8 8 -20t-8 -20l-293 -293l293 -293q8 -8 8 -20t-8 -20t-19.5 -8t-21.5 8z"/>
            <glyph glyph-name="ampersand" unicode="&#x26;" horiz-adv-x="682"
                   d="M398 683v-655q0 -11 -8.5 -19.5t-20 -8.5t-20 8.5t-8.5 19.5v655h-199l228 227l227 -227h-199z"/>
            <glyph glyph-name="quotesingle" unicode="'"
            />
            <glyph glyph-name="parenleft" unicode="(" horiz-adv-x="625"
                   d="M284 228v654q0 12 8.5 20t20 8t20 -8t8.5 -20v-654h199l-228 -228l-227 228h199z"/>
            <glyph glyph-name="parenright" unicode=")" horiz-adv-x="1024"
                   d="M284 512h656q12 0 20 -8.5t8 -20t-8 -20t-20 -8.5h-656v-199l-227 228l227 227v-199z"/>
            <glyph glyph-name="asterisk" unicode="*" horiz-adv-x="1024"
                   d="M512 748l-78 -236h-252l172 -127l32 -25l-77 -238l203 148l203 -148l-77 238l204 152h-252zM490 863q5 16 22 16t22 -16l97 -294h313q18 0 22 -16q5 -18 -9 -26l-253 -188l97 -298q2 -7 0 -14q-5 -16 -22 -16q-8 0 -14 4l-253 184l-253 -184q-6 -4 -14 -4q-9 0 -14 4
q-12 10 -8 26l97 298l-254 188q-13 9 -8 26q5 16 22 16h313z"/>
            <glyph glyph-name="plus" unicode="+" horiz-adv-x="1024"
                   d="M569 455h370q11 0 19.5 -8.5t8.5 -20t-8.5 -20t-19.5 -8.5h-370v-370q0 -11 -8.5 -19.5t-20 -8.5t-20 8.5t-8.5 19.5v370h-370q-12 0 -20 8.5t-8 20t8 20t20 8.5h370v370q0 12 8.5 20t20 8t20 -8t8.5 -20v-370z"/>
            <glyph glyph-name="comma" unicode=","
            />
            <glyph glyph-name="hyphen" unicode="-" horiz-adv-x="1024"
                   d="M65.5 446.5q8.5 8.5 19.5 8.5h854q11 0 19.5 -8.5t8.5 -20t-8.5 -20t-19.5 -8.5h-854q-11 0 -19.5 8.5t-8.5 20t8.5 20z"/>
            <glyph glyph-name="period" unicode="."
            />
            <glyph glyph-name="slash" unicode="/" horiz-adv-x="1024"
                   d="M740 455h-655q-11 0 -19.5 8.5t-8.5 20t8.5 20t19.5 8.5h655v199l227 -228l-227 -227v199z"/>
            <glyph glyph-name="zero" unicode="0" horiz-adv-x="1024"
                   d="M910 569v284h-284v-284h284zM569 910h398v-398h-398v398zM398 569v284h-284v-284h284zM57 910h398v-398h-398v398zM398 57v284h-284v-284h284zM57 398h398v-398h-398v398zM910 57v284h-284v-284h284zM569 398h398v-398h-398v398z"/>
            <glyph glyph-name="one" unicode="1" horiz-adv-x="1024"
                   d="M853 251v408l-204 -204zM569 455l341 341v-682zM455 251v408l-204 -204zM171 455l341 341v-682zM57 768q0 12 8.5 20t20 8t20 -8t8.5 -20v-626q0 -12 -8.5 -20t-20 -8t-20 8t-8.5 20v626z"/>
            <glyph glyph-name="two" unicode="2" horiz-adv-x="625"
                   d="M512 251v408l-204 -204zM227 455l342 341v-682zM113 768q0 12 8.5 20t20.5 8t20 -8t8 -20v-626q0 -12 -8 -20t-20 -8t-20.5 8t-8.5 20v626z"/>
            <glyph glyph-name="three" unicode="3" horiz-adv-x="853"
                   d="M739 251v408l-204 -204zM455 455l341 341v-682zM341 251v408l-204 -204zM57 455l341 341v-682z"/>
            <glyph glyph-name="four" unicode="4" horiz-adv-x="682"
                   d="M472 455l-359 233v-472zM56 114v682l518 -341z"/>
            <glyph glyph-name="five" unicode="5" horiz-adv-x="682"
                   d="M227 171v569h-114v-569h114zM57 796h227v-682h-227v682zM569 171v569h-114v-569h114zM398 796h227v-682h-227v682z"/>
            <glyph glyph-name="six" unicode="6" horiz-adv-x="796"
                   d="M682 171v569h-568v-569h568zM57 796h682v-682h-682v682z"/>
            <glyph glyph-name="seven" unicode="7" horiz-adv-x="853"
                   d="M318 455l-204 204v-408zM57 114v682l341 -341zM716 455l-204 204v-408zM455 114v682l341 -341z"/>
            <glyph glyph-name="eight" unicode="8" horiz-adv-x="568"
                   d="M113 659v-408l204 204zM398 455l-342 -341v682zM455 768q0 12 8 20t20 8t20.5 -8t8.5 -20v-626q0 -12 -8.5 -20t-20.5 -8t-20 8t-8 20v626z"/>
            <glyph glyph-name="nine" unicode="9" horiz-adv-x="1024"
                   d="M569 659v-408l204 204zM853 455l-341 -341v682zM171 659v-408l204 204zM455 455l-341 -341v682zM910 768q0 12 8.5 20t20 8t20 -8t8.5 -20v-626q0 -12 -8.5 -20t-20 -8t-20 8t-8.5 20v626z"/>
            <glyph glyph-name="colon" unicode=":" horiz-adv-x="852"
                   d="M219 406.5q-8 -8.5 -20 -8.5h-114q-12 0 -20 8.5t-8 20.5v113q0 12 8 20.5t20 8.5h114q12 0 20 -8.5t8 -20.5v-113q0 -12 -8 -20.5zM503.5 406.5q-8.5 -8.5 -20.5 -8.5h-113q-12 0 -20.5 8.5t-8.5 20.5v113q0 12 8.5 20.5t20.5 8.5h113q12 0 20.5 -8.5t8.5 -20.5v-113
q0 -12 -8.5 -20.5zM788 406.5q-8 -8.5 -20 -8.5h-114q-12 0 -20 8.5t-8 20.5v113q0 12 8 20.5t20 8.5h114q12 0 20 -8.5t8 -20.5v-113q0 -12 -8 -20.5z"/>
            <glyph glyph-name="semicolon" unicode=";" horiz-adv-x="796"
                   d="M682 455q0 120 -84 202.5t-200 82.5t-201 -84q-83 -82 -83 -201q0 -118 83 -201t201 -83t201 83t83 201zM156.5 696.5q99.5 99.5 241.5 99.5t241.5 -99.5t99.5 -241.5t-99.5 -241.5t-241.5 -99.5t-241.5 99.5t-99.5 241.5t99.5 241.5z"/>
            <glyph glyph-name="less" unicode="&#x3c;" horiz-adv-x="568"
                   d="M77 638q4 86 35 130q59 85 170 85q103 0 160 -65q49 -55 49 -137q0 -96 -95 -205q-40 -46 -50 -64q-22 -37 -22 -131h-64q0 47 5 90q6 55 55 113q11 13 30 34q56 66 68 116q5 20 5 46q0 54 -32 96q-39 47 -105 47q-101 0 -134 -87q-10 -29 -11 -68h-64zM331 57h-80v117
h80v-117z"/>
            <glyph glyph-name="equal" unicode="=" horiz-adv-x="1024"
                   d="M939 740h-854q-12 0 -20 7.5t-8 20.5t8 20.5t20 7.5h854q12 0 20 -7.5t8 -20.5t-8 -20.5t-20 -7.5zM85 228h854q12 0 20 -8t8 -21t-8 -20.5t-20 -7.5h-854q-12 0 -20 7.5t-8 20.5t8 21t20 8zM85 512h854q12 0 20 -8t8 -20.5t-8 -20.5t-20 -8h-854q-12 0 -20 8t-8 20.5
t8 20.5t20 8z"/>
            <glyph glyph-name="greater" unicode="&#x3e;" horiz-adv-x="512"
                   d="M285 853v-113h-57v113h57zM285 114h114v-57h-285v57h114v455h-114v57h171v-512z"/>
            <glyph glyph-name="question" unicode="?" horiz-adv-x="1024"
                   d="M85 910h854q11 0 19.5 -8t8.5 -20v-854q0 -11 -8.5 -19.5t-19.5 -8.5h-854q-11 0 -19.5 8.5t-8.5 19.5v854q0 12 8.5 20t19.5 8zM114 57h796v796h-796v-796zM511 681q-78 0 -84 -117h-61q4 114 71 156q32 20 71 20q74 0 116 -48q34 -39 34 -100q0 -54 -33 -104
q-6 -9 -17 -21q-11 -14 -28 -33q-37 -45 -37 -121h-61v12q0 69 34 122q11 17 28 35q46 51 46 107q0 41 -22 67q-21 25 -57 25zM543 171h-61v95h61v-95z"/>
            <glyph glyph-name="at" unicode="@"
            />
            <glyph glyph-name="A" unicode="A" horiz-adv-x="910"
                   d="M114 910h682q24 0 40.5 -16.5t16.5 -40.5v-796q0 -24 -16.5 -40.5t-40.5 -16.5h-682q-24 0 -40.5 16.5t-16.5 40.5v796q0 24 16.5 40.5t40.5 16.5zM114 57h682v626h-682v-626zM114 853v-113h682v113h-682zM424 138h-253q0 75 31 125q13 20 51 54q5 3 18 12.5t42 29.5
t47 49t18 54q0 41 -15 60q-26 34 -62 34q-43 0 -61 -37q-10 -18 -10 -53h-59q0 95 72 126q28 12 59 12q61 0 99 -42q34 -38 34 -91q0 -80 -67 -129q-19 -14 -40 -28q-54 -37 -64.5 -48t-18.5 -22q-19 -24 -19 -59h198v-47zM533 388q34 50 89 50q54 0 88 -44q29 -39 29 -103
q0 -69 -35 -110q-33 -43 -89 -43q-70 0 -105 64q-20 37 -23.5 78t-3.5 84q0 93 21 144t49.5 73.5t62.5 22.5q61 0 89 -40q22 -32 24 -71h-51q-10 65 -59 65q-64 0 -80 -108q-4 -27 -6 -62zM614 393q-36 0 -57 -37q-15 -26 -15 -58q0 -82 40 -106q15 -9 32 -9q36 0 55 33
q17 30 17 60q0 84 -40 108q-14 9 -32 9z"/>
            <glyph glyph-name="B" unicode="B" horiz-adv-x="967"
                   d="M722.5 73.5q-16.5 -16.5 -40 -16.5t-40 16.5t-16.5 40t16.5 40.5t40 17t40 -17t16.5 -40.5t-16.5 -40zM381.5 73.5q-16.5 -16.5 -40 -16.5t-40.5 16.5t-17 40t17 40.5t40.5 17t40 -17t16.5 -40.5t-16.5 -40zM313 284h455q12 0 20 -8t8 -20t-8 -20t-20 -8h-455
q-22 0 -40 15t-21 36l-76 456q-2 5 -5 5h-86q-12 0 -20 8t-8 20t8 20t20 8h86q22 0 39.5 -15t22.5 -41h631q25 0 37 -16q9 -12 9 -28q1 -5 -1 -12l-56 -229q-5 -23 -19 -40t-38 -17h-507l19 -109q0 -5 5 -5zM791 459q5 4 5 7l54 217h-608l38 -228h502q4 0 9 4z"/>
            <glyph glyph-name="C" unicode="C" horiz-adv-x="910"
                   d="M398 910h398q24 0 40.5 -16.5t16.5 -40.5v-682q0 -24 -16.5 -40.5t-40.5 -16.5h-170v57h170v682h-398v-57h-57v57q0 24 17 40.5t40 16.5zM512 57v626h-398v-626h398zM114 740h398q23 0 40 -17t17 -40v-626q0 -24 -17 -40.5t-40 -16.5h-398q-24 0 -40.5 16.5t-16.5 40.5
v626q0 23 16.5 40t40.5 17z"/>
            <glyph glyph-name="D" unicode="D" horiz-adv-x="796"
                   d="M512 853h199q13 0 20.5 -7.5t7.5 -20.5t-7.5 -21t-20.5 -8h-626q-13 0 -20.5 8t-7.5 21t7.5 20.5t20.5 7.5h199v29q0 13 8 20.5t21 7.5h170q13 0 21 -7.5t8 -20.5v-29zM682 740h57l-57 -712q0 -12 -7.5 -20t-20.5 -8h-512q-9 0 -18.5 8t-9.5 20l-57 712h62q0 -3 8 -109.5
t17.5 -234t17.5 -233.5l8 -106h456l8 105q9 105 28.5 330t19.5 248zM284 148q0 -34 -28.5 -34t-28.5 34v501q0 13 8 23.5t21 10.5q28 0 28 -34v-501zM569 148q0 -34 -28.5 -34t-28.5 34v501q0 13 7.5 23.5t20.5 10.5q29 0 29 -34v-501zM398 114q-28 0 -28 34v501
q0 13 7.5 23.5t20.5 10.5q28 0 28 -34v-501q0 -34 -28 -34z"/>
            <glyph glyph-name="E" unicode="E" horiz-adv-x="1024"
                   d="M85 796h854q11 0 19.5 -8t8.5 -20v-626q0 -12 -8.5 -20t-19.5 -8h-854q-11 0 -19.5 8t-8.5 20v626q0 12 8.5 20t19.5 8zM853 427h57v57h-57v256h-739v-569h739v256z"/>
            <glyph glyph-name="F" unicode="F" horiz-adv-x="1024"
                   d="M529 740h381q24 0 40.5 -17t16.5 -40v-512q0 -24 -16.5 -40.5t-40.5 -16.5h-796q-24 0 -40.5 16.5t-16.5 40.5v625q0 24 16.5 40.5t40.5 16.5h284zM381 796h-267v-56h332zM114 171h796v512h-796v-512z"/>
            <glyph glyph-name="G" unicode="G" horiz-adv-x="967"
                   d="M57 740v170h853v-170l-341 -342v-227l-171 -171v398zM529 439l300 301h-691l300 -301q17 -17 17 -41v-261l57 57v204q0 24 17 41zM114 796h739v57h-739v-57z"/>
            <glyph glyph-name="H" unicode="H" horiz-adv-x="1024"
                   d="M587 359l-75 -75v-113h-114v-114h-114l-56 -57h-86q-28 0 -48 20l-17 17q-8 8 -14 22.5t-6 25.5v57q0 26 20 49l339 339q-18 50 -18 96q0 116 84 201q81 83 201 83q119 0 201 -83q83 -85 83 -201q0 -118 -83 -202q-39 -38 -90.5 -60.5t-104 -22.5t-102.5 18zM114 141v-56
q0 -1 4 -9l16 -16l9 -3h61l57 57h80v114h114v80l117 117l34 -12q38 -15 77 -15q95 0 161 67q66 68 66 161t-66 161q-65 66 -161 66q-95 0 -161 -66q-31 -31 -49 -72.5t-18 -85t15 -80.5l12 -34l-365 -364zM779.5 642.5q-16.5 -16.5 -40 -16.5t-40 16.5t-16.5 40t16.5 40.5
t40 17t40 -17t16.5 -40.5t-16.5 -40z"/>
            <glyph glyph-name="I" unicode="I" horiz-adv-x="1024"
                   d="M796 740v-57h-568v57h568zM796 569v-57h-568v57h568zM512 398v-57h-284v57h284zM114 910h796q22 0 39.5 -17.5t17.5 -39.5v-625q0 -22 -17.5 -39.5t-39.5 -17.5h-398l-228 -171v171h-170q-22 0 -39.5 17.5t-17.5 39.5v625q0 22 17.5 39.5t39.5 17.5zM495 228h415v625
h-796v-625h227v-114z"/>
            <glyph glyph-name="J" unicode="J" horiz-adv-x="910"
                   d="M392 674q17 -17 17 -43t-17 -43l-26 -25q37 -53 81 -96q62 -60 114 -99l26 25q17 17 43 17t44 -17l162 -162q17 -17 17 -43t-17 -43l-54 -54q-6 -6 -22 -17q-11 -8 -53 -16q-5 -1 -11 -1q-73 4 -200 101q-134 102 -266 249q-111 124 -152 207q-22 45 -22 74v7q0 55 43 98
l43 43q17 17 43.5 17t43.5 -17zM328 511q-27 38 -28 40l-12 20l60 60l-161 161l-45 -42q-24 -24 -24 -61q0 -35 54 -113q63 -91 187 -215q128 -128 227 -193q76 -50 109 -50h5q14 0 28 9l11 7l54 54l-163 162l-60 -60l-21 12q-1 1 -39.5 28t-96.5 85t-85 96z"/>
            <glyph glyph-name="K" unicode="K" horiz-adv-x="1024"
                   d="M740 834v-111l179 179q8 8 19.5 8t20.5 -8q8 -8 8 -20t-8 -20l-854 -854q-5 -5 -9 -6q-6 -2 -11 -2q-11 -1 -22 10q-6 6 -6 18t8 21l236 235h-41q-13 0 -22.5 10t-9.5 23v276q0 14 9.5 23.5t22.5 9.5h206l240 222q11 11 20 11q14 0 14 -25zM284 341h74l325 325v83
l-195 -180h-204v-228zM726 56q-9 0 -20 11l-240 217h-4l42 42l179 -161v340l57 57v-481q0 -25 -14 -25z"/>
            <glyph glyph-name="L" unicode="L" horiz-adv-x="796"
                   d="M85 512h626q12 0 20 -8.5t8 -19.5v-456q0 -11 -8 -19.5t-20 -8.5h-626q-12 0 -20 8.5t-8 19.5v456q0 11 8 19.5t20 8.5zM114 57h568v398h-568v-398zM569 569v148q0 64 -54 100t-117 36t-117 -36t-54 -100v-148h-57v148q0 86 72 142q66 51 156 51q91 0 156 -51
q72 -56 72 -142v-148h-57z"/>
            <glyph glyph-name="M" unicode="M" horiz-adv-x="794"
                   d="M567 455h113q13 0 21 -8t8 -20.5t-8 -20.5t-21 -8q0 -107 -72 -186q-71 -79 -178 -93v-62h137q12 0 20 -10.5t8 -23.5v-23h-398v23q0 13 8 23.5t20 10.5h137v62q-109 10 -178 89q-72 80 -72 190q-13 0 -21 8t-8 20.5t8 20.5t21 8h113v285q0 68 51.5 119t119.5 51
t119.5 -51t51.5 -119v-285zM317.5 817.5q-35.5 -35.5 -35.5 -77.5v-342q0 -42 33.5 -78t80.5 -36t80.5 36t33.5 78v342q0 46 -35.5 79.5t-78.5 33.5t-78.5 -35.5zM168 398q0 -95 67.5 -161t160.5 -66t161 67q67 66 67 160h-57q0 -68 -51.5 -119t-119.5 -51t-119.5 51
t-51.5 119h-57z"/>
            <glyph glyph-name="N" unicode="N" horiz-adv-x="1024"
                   d="M398 112v2h228v-2q0 -47 -33.5 -79.5t-80.5 -32.5t-80.5 32.5t-33.5 79.5zM747 730l172 172q8 8 19.5 8t20.5 -8q8 -8 8 -20t-8 -20l-854 -854q-8 -8 -20 -8t-20 8.5t-8 20t8 20.5l123 122h-34q-14 0 -24 10t-7 24l72 339q17 100 79 172q63 73 157 97v16q0 31 24.5 56
t56.5 25t56.5 -25t24.5 -56v-14q85 -20 154 -85zM251 534l-65 -306h59l462 462q-56 52 -127 70l-39 10v55q0 12 -8.5 20t-20.5 8t-20 -8t-8 -20v-58l-40 -10q-74 -18 -127 -79q-52 -60 -66 -142v-2zM776 600l43 42q27 -51 34 -98l48 -339q3 -14 -7 -24t-24 -10h-522l57 57
h435l-43 308q-4 29 -21 64z"/>
            <glyph glyph-name="O" unicode="O" horiz-adv-x="1024"
                   d="M666.5 822q-72.5 31 -154.5 31t-154.5 -31t-127 -85.5t-85.5 -127t-31 -154.5t31 -154.5t85.5 -126.5t127 -85.5t154.5 -31.5t154.5 31.5t127 85.5t85.5 126.5t31 154.5t-31 154.5t-85.5 127t-127 85.5zM335 874.5q83 35.5 177 35.5t177 -35.5t145 -97.5t97.5 -145
t35.5 -177t-35.5 -177t-97.5 -144.5t-145 -97.5t-177 -36t-177 36t-145 97.5t-97.5 144.5t-35.5 177t35.5 177t97.5 145t145 97.5zM576 456q0 -27 -19 -46t-46 -19t-46 19t-19 46q0 1 4 21l-186 186l41 40l186 -186q10 4 16 4t26 -4l130 129l40 -40l-131 -131q4 -8 4 -19z
"/>
            <glyph glyph-name="P" unicode="P" horiz-adv-x="1024"
                   d="M94 532q113 113 269 113h25q11 0 36 -6l249 249q18 18 44.5 18t44.5 -18l187 -186q18 -18 18 -45t-18 -45l-249 -248q6 -28 6 -42q0 -69 -18 -128q-28 -86 -99 -157l-20 -20l-495 495zM568 98q49 56 70 130q11 38 11 72.5t-8 64.5l-4 16l271 272v9l-186 186h-9l-271 -272
l-16 4q-32 9 -47 9h-18q-34 0 -75 -11q-73 -18 -131 -67zM65 49l196 195l40 -40l-196 -196q-5 -5 -9 -6q-6 -2 -11 -2q-11 -1 -22 10q-6 6 -6 18t8 21z"/>
            <glyph glyph-name="Q" unicode="Q" horiz-adv-x="1024"
                   d="M910 284h-57v456h-682v-456h-57v456q0 23 16.5 39.5t40.5 16.5h682q24 0 40.5 -16.5t16.5 -39.5v-456zM90.5 147q-33.5 33 -33.5 81h910q0 -48 -33.5 -81t-80.5 -33h-682q-47 0 -80.5 33zM436 142h152q12 0 20 8.5t8 20t-8 20t-20 8.5h-152q-12 0 -20 -8.5t-8 -20t8 -20
t20 -8.5z"/>
            <glyph glyph-name="R" unicode="R" horiz-adv-x="1024"
                   d="M284 114v34q0 9 17 16t40 7h342q23 0 40 -7t17 -16v-34h-456zM85 796h854q11 0 19.5 -8t8.5 -20v-512q0 -12 -8.5 -20t-19.5 -8h-370v-31h-114v31h-370q-11 0 -19.5 8t-8.5 20v512q0 12 8.5 20t19.5 8zM114 284h796v456h-796v-456z"/>
            <glyph glyph-name="S" unicode="S" horiz-adv-x="1024"
                   d="M512 853l-36 -1l-23 -134l-32 -11q-45 -17 -82 -47l-25 -22l-127 47q-17 -24 -37 -63l104 -87l-6 -32q-4 -26 -4 -53q0 -17 4 -43l6 -32l-104 -87q20 -39 37 -63l127 47l25 -22q37 -30 82 -47l32 -11l5 -33l18 -100q18 -2 36 -2t36 2l23 133l32 11q47 17 82 48l25 21
l127 -47q17 24 37 63l-104 87l6 32q4 26 4 48t-4 48l-6 32l104 87q-20 39 -37 63l-127 -47l-25 22q-37 30 -82 47l-32 11l-5 33l-18 101zM942 605l-110 -92q5 -35 5 -58t-5 -58l110 -91q-27 -80 -86 -148l-134 49q-42 -37 -100 -58l-25 -141q-40 -8 -85 -8q-44 0 -86 8
l-24 141q-56 20 -100 58l-134 -49q-59 68 -86 148l110 91q-5 35 -5 58t5 58l-110 92q27 78 86 148l134 -50q42 37 100 58l24 141q42 8 86 8t86 -8l24 -141q56 -20 100 -58l134 50q59 -70 86 -148zM616 559q-43 43 -104 43t-104 -43t-43 -103.5t43 -103.5t104 -43t104 43
t43 103.5t-43 103.5zM368 599q59 60 144 60q84 0 144 -60q59 -59 59 -144q0 -84 -59.5 -143.5t-143.5 -59.5t-143.5 59.5t-59.5 143.5q0 83 59 144z"/>
            <glyph glyph-name="T" unicode="T" horiz-adv-x="982"
                   d="M341 512v-191h-191v191h191zM832 512v-191h-191v191h191z"/>
            <glyph glyph-name="U" unicode="U" horiz-adv-x="1024"
                   d="M592.5 763q-33.5 33 -80.5 33t-80.5 -33t-33.5 -80v-171q0 -47 33.5 -80.5t80.5 -33.5t80.5 33.5t33.5 80.5v171q0 47 -33.5 80zM391 803q50 50 121 50t121 -50t50 -120v-171q0 -71 -50 -121t-121 -50t-121 50t-50 121v171q0 70 50 120zM218 285h588q67 0 114 -47.5
t47 -114.5v-66h-57v66q0 43 -30.5 74t-73.5 31h-588q-43 0 -73.5 -31t-30.5 -74v-66h-57v66q0 67 47 114.5t114 47.5z"/>
            <glyph glyph-name="V" unicode="V" horiz-adv-x="910"
                   d="M822 755q15 0 25.5 -10.5t10.5 -25t-11 -24.5l-546 -546l-22 22q-3 4 -93 88t-123 117q-10 10 -10 25t13 27q7 8 22 8t25 -10q105 -106 188 -177l496 496q10 10 25 10z"/>
            <glyph glyph-name="W" unicode="W" horiz-adv-x="626"
                   d="M420 902q64 -8 107 -22q32 -11 37 -40l5 -29v-718l-5 -25q-5 -26 -37 -38q-80 -30 -223 -30q-54 0 -118 12q-71 13 -86 18q-32 11 -38 38l-5 25v718l5 29q6 29 43.5 42t100.5 20.5t106.5 7.5t107.5 -8zM513 93v78h-399v-78l1 -4q1 -4 11 -7.5t69.5 -14t110 -10.5t108.5 7
q63 7 94 20q5 2 5 9zM114 228h399v512h-399v-512zM114 796h399v15q-3 13 -5 15q-36 13 -95 20t-100.5 7t-100.5 -7q-62 -7 -93 -20q-5 -2 -5 -15v-15zM338 138q4 -4 4 -10v-28q0 -6 -4 -10.5t-10 -4.5h-29q-6 0 -10 4.5t-4 10.5v28q0 6 4 10t10 4h29q6 0 10 -4z"/>
            <glyph glyph-name="X" unicode="X" horiz-adv-x="910"
                   d="M495 455l301 -301q9 -9 9 -20.5t-8.5 -20t-20 -8.5t-19.5 9l-302 301l-302 -301q-8 -9 -19.5 -9t-20 8.5t-8.5 20t9 20.5l301 301l-301 302q-9 8 -9 19.5t8.5 20t20 8.5t19.5 -9l302 -301l302 301q8 9 19.5 9t20 -8.5t8.5 -20t-9 -19.5z"/>
            <glyph glyph-name="Y" unicode="Y" horiz-adv-x="1024"
                   d="M81 228h586q8 0 11 2q2 2 11 20l12 40h239q28 49 28 97q0 68 -49 117q-48 48 -116 48q-26 0 -57 -12l-45 -17l-23 40q-30 56 -86 88t-113 32q-67 0 -125 -29q-125 -62 -125 -199v-57h-57q-39 0 -75 -28q-35 -27 -39 -63q0 -58 23 -79zM890 586q42 -18 71 -47
q30 -30 47 -71t17 -85q0 -45 -16 -85q-18 -44 -41 -70h-227q-20 -57 -74 -57h-609q-34 21 -48 60q-11 31 -11 62q0 67 64 119q53 43 109 43q0 81 40 149q41 69 113 101q79 35 148 35q41 0 78 -12q120 -39 178 -136q47 11 84 11t77 -17z"/>
            <glyph glyph-name="Z" unicode="Z" horiz-adv-x="967"
                   d="M366 242l-227 -228q-15 -14 -34 -14t-33.5 14.5t-14.5 34t14 33.5l228 227q28 -39 67 -67zM781.5 724.5q-76.5 76.5 -184.5 76.5q-109 0 -184 -77q-76 -77 -76 -184q0 -106 76 -184q75 -76 184 -76q108 0 184.5 76.5t76.5 183.5q0 108 -76.5 184.5zM476 828.5
q57 24.5 121 24.5q130 0 221 -91q43 -43 67.5 -100t24.5 -121.5t-24.5 -121.5t-67 -99.5t-99.5 -67t-121.5 -24.5t-121.5 24.5t-99.5 67t-67.5 99.5t-25 121.5t25 121.5t67.5 99.5t99.5 67zM427 512q-12 0 -20.5 8.5t-8.5 20t8.5 20t20.5 8.5h341q12 0 20 -8.5t8 -20t-8 -20
t-20 -8.5h-341z"/>
            <glyph glyph-name="bracketleft" unicode="["
            />
            <glyph glyph-name="backslash" unicode="\"
            />
            <glyph glyph-name="bracketright" unicode="]"
            />
            <glyph glyph-name="asciicircum" unicode="^"
            />
            <glyph glyph-name="underscore" unicode="_"
            />
            <glyph glyph-name="grave" unicode="`"
            />
            <glyph glyph-name="a" unicode="a" horiz-adv-x="1024"
                   d="M291 35q-96 0 -166 68q-68 66 -68 166q0 97 68 165l379 379q9 9 20.5 9t20 -8.5t8.5 -20.5t-8 -20l-379 -379q-52 -52 -52 -125t52 -125t125 -52t125 52l461 461q33 31 33 79q0 46 -32 78.5t-79.5 32.5t-79.5 -32l-461 -461q-14 -14 -14 -28q0 -26 14 -38q16 -14 33 -14
q20 0 33 14l379 379q8 8 20 8t20.5 -8.5t8.5 -20t-9 -19.5l-379 -379q-29 -30 -73 -30t-73 30q-31 29 -31 73q0 42 31 73l461 462q47 47 119 47t120 -48q49 -51 49 -119q0 -71 -49 -120l-461 -461q-70 -68 -166 -68z"/>
            <glyph glyph-name="b" unicode="b" horiz-adv-x="568"
                   d="M73 2.5q-6 2.5 -11 10t-5 15.5l-1 854q0 9 8 20q6 8 21 8h398q12 0 20.5 -8t8.5 -20v-854q0 -20 -18 -26q-6 -2 -12 -2q-10 -1 -19 9l-179 158l-178 -158q-9 -9 -18 -9t-15 2.5zM304 228l151 -128v753h-342v-753l150 128q7 9 21 9q13 0 20 -9z"/>
            <glyph glyph-name="c" unicode="c" horiz-adv-x="1024"
                   d="M961 313q0 -29 -22 -29h-683q-13 0 -20.5 8t-7.5 21t7.5 20.5t20.5 7.5h677q13 0 20.5 -7.5t7.5 -20.5zM933 569q34 0 34 -29q0 -12 -8 -20t-20 -8h-683q-13 0 -20.5 8t-7.5 20.5t7.5 20.5t20.5 8h677zM961 85q0 -28 -22 -28h-683q-13 0 -20.5 8t-7.5 20.5t7.5 20.5
t20.5 8h677q13 0 20.5 -8t7.5 -21zM57 853h341l-170 -170z"/>
            <glyph glyph-name="d" unicode="d" horiz-adv-x="682"
                   d="M341 341v541q0 12 8.5 20t20 8t20 -8t8.5 -20v-541h199l-228 -227l-227 227h199zM150.5 48.5q8.5 8.5 19.5 8.5h399q11 0 19.5 -8.5t8.5 -20t-8.5 -20t-19.5 -8.5h-399q-11 0 -19.5 8.5t-8.5 20t8.5 20z"/>
            <glyph glyph-name="e" unicode="e" horiz-adv-x="910"
                   d="M146 308l528 528q17 17 40.5 17t40.5 -17l82 -81q16 -17 16 -40.5t-17 -40.5l-527 -529l-42 41l529 528l-82 82l-528 -529zM105 268l162 -163l-175 -46q-4 -2 -12 -2q-2 0 -16 7q-2 1 -3 4t-2 5q-2 4 -2 11q0 4 2 8z"/>
            <glyph glyph-name="f" unicode="f" horiz-adv-x="796"
                   d="M114 910h421l204 -205v-648q0 -21 -17.5 -39t-39.5 -18h-568q-22 0 -39.5 18t-17.5 39v796q0 22 17.5 39.5t39.5 17.5zM512 683h170l-170 170v-170zM114 853v-796h568v569h-170q-22 0 -39.5 17.5t-17.5 39.5v170h-341z"/>
            <glyph glyph-name="g" unicode="g" horiz-adv-x="796"
                   d="M626 708q68 -66 94.5 -152t8.5 -178.5t-89.5 -164t-164 -89.5t-178 8.5t-151.5 94t-84 167.5q-3 18 -6 54t29 36q28 0 29 -28q2 -121 83 -202q67 -67 165 -80q99 -13 179 36q92 53 121 142.5t5.5 175.5t-93.5 149t-176 63v-171l-199 199l199 199v-171q137 0 228 -88z"/>
            <glyph glyph-name="h" unicode="h" horiz-adv-x="1024"
                   d="M512 853l445 -389q9 -8 10 -20t-7 -21q-9 -9 -24 -9q-9 0 -16 7l-408 357l-408 -357q-9 -8 -20.5 -7t-19.5 9.5t-7 20.5t10 20zM228 57h568v398l57 -49v-378q0 -11 -8 -19.5t-20 -8.5h-626q-12 0 -20 8.5t-8 19.5v378l56 50z"/>
            <glyph glyph-name="i" unicode="i" horiz-adv-x="1024"
                   d="M85 910h854q11 0 19.5 -8t8.5 -20v-854q0 -11 -8.5 -19.5t-19.5 -8.5h-854q-11 0 -19.5 8.5t-8.5 19.5v854q0 12 8.5 20t19.5 8zM114 57h796v796h-796v-796zM569 740v-114h-57v114h57zM569 228h57v-57h-171v57h57v284h-57v57h114v-341z"/>
            <glyph glyph-name="j" unicode="j" horiz-adv-x="1024"
                   d="M518 455h-12q-88 0 -148 -11v-40q0 -26 -18.5 -44.5t-43.5 -18.5h-239q-26 0 -41.5 16t-15.5 41v68q0 36 34 80q26 34 90 54q143 43 388 43h6q134 0 249 -17q185 -26 229 -80q28 -40 28 -80v-68q0 -21 -15.5 -39t-41.5 -18h-239q-25 0 -43.5 18.5t-18.5 44.5v40
q-60 11 -148 11zM646 504l48 -9q23 -10 23 -29l5 -66v-2h245v68l-1 14q-2 15 -10 32q-24 29 -136 50q-131 24 -302 24h-6q-94 0 -170 -7q-151 -14 -222 -41q-56 -21 -61 -58l-2 -14v-68h239l6 6v62q0 18 22 29l48 9q49 8 134 8h48q43 0 92 -8z"/>
            <glyph glyph-name="k" unicode="k" horiz-adv-x="1024"
                   d="M512 165v584l-195 -180h-203v-228h203zM569 834v-753q0 -25 -14 -25q-10 0 -19 11l-241 217h-206q-13 0 -22.5 10t-9.5 23v276q0 14 9.5 23.5t22.5 9.5h206l241 222q9 11 19 11q14 0 14 -25zM718 201q-9 -16 -22 -18q-11 -2 -22 4q-9 5 -12 19q-2 11 5 21q73 104 73 228
q0 125 -73 228q-7 10 -5 21.5t12 18.5t21.5 5t18.5 -12q82 -118 82 -261q0 -144 -78 -254zM854 97h-1q-6 -10 -18 -12t-21.5 4.5t-11.5 18t5 21.5q103 150 103 326t-103 326q-7 10 -5 21.5t11.5 18t21.5 4.5t18 -11q27 -38 48 -80q66 -134 66 -279q0 -193 -113 -358z"/>
            <glyph glyph-name="l" unicode="l" horiz-adv-x="1024"
                   d="M788 908q76 0 127 -50q52 -54 52 -127q0 -76 -53 -127l-210 -211q-55 -53 -127 -53q-74 0 -127 53q-8 8 -8 20t8 20.5t20 8.5t20 -9q35 -34 87 -34t86 34l211 211q36 34 36 87q0 52 -36 86q-34 35 -86 35t-87 -35l-211 -211q-8 -8 -20 -8t-20 8.5t-8 20t8 20.5l211 211
q51 50 127 50zM323 93l211 211q8 8 20 8t20 -8.5t8 -20t-8 -20.5l-211 -210q-51 -53 -127 -53q-74 0 -127 53q-52 52 -52 126q0 75 52 127l211 211q51 51 127 51t127 -51q8 -8 8 -20t-8 -20.5t-20 -8.5t-20 9q-35 34 -87 34t-86 -34l-211 -211q-36 -34 -36 -87q0 -52 36 -86
q34 -35 86 -35t87 35z"/>
            <glyph glyph-name="m" unicode="m" horiz-adv-x="1024"
                   d="M57 796h910v-597q0 -12 -8.5 -20t-19.5 -8h-854q-11 0 -19.5 8t-8.5 20v597zM512 516l397 224h-794zM114 228h796v447l-384 -216q-6 -4 -14 -4t-14 4l-384 216v-447z"/>
            <glyph glyph-name="n" unicode="n" horiz-adv-x="1024"
                   d="M398 112v2h228v-2q0 -54 -35.5 -81.5t-78.5 -27.5t-78.5 27.5t-35.5 81.5zM853 544l48 -339q3 -14 -7 -24t-24 -10h-716q-14 0 -24 10t-7 24l72 339q17 100 79 171q64 74 157 98v16q0 39 25.5 58.5t56 19.5t55.5 -19.5t25 -58.5v-14q93 -22 169 -99q77 -76 91 -172z
M251 534l-65 -306h654l-43 308q-12 76 -74 140t-143 84l-39 10v55q0 27 -28.5 27t-28.5 -27v-58l-40 -10q-74 -18 -127 -79q-52 -60 -66 -142v-2z"/>
            <glyph glyph-name="o" unicode="o" horiz-adv-x="1024"
                   d="M666.5 822q-72.5 31 -154.5 31t-154.5 -31t-127 -85.5t-85.5 -127t-31 -154.5t31 -154.5t85.5 -126.5t127 -85.5t154.5 -31.5t154.5 31.5t127 85.5t85.5 126.5t31 154.5t-31 154.5t-85.5 127t-127 85.5zM335 874.5q83 35.5 177 35.5t177 -35.5t145 -97.5t97.5 -145
t35.5 -177t-35.5 -177t-97.5 -144.5t-145 -97.5t-177 -36t-177 36t-145 97.5t-97.5 144.5t-35.5 177t35.5 177t97.5 145t145 97.5zM666 764q14 -7 19 -20.5t-3 -29t-22.5 -18t-23.5 2.5q-52 26 -117 26q-115 0 -196 -81t-81 -196q0 -15 -10.5 -25.5t-25 -10.5t-25 10.5
t-10.5 25.5q0 72 27.5 135.5t74.5 111t110.5 74.5t138 27t144.5 -32z"/>
            <glyph glyph-name="p" unicode="p" horiz-adv-x="1024"
                   d="M228 796v-113h-57v142q0 13 7.5 20.5t20.5 7.5h626q13 0 20.5 -7.5t7.5 -20.5v-142h-57v113h-568zM845.5 463q-7.5 -8 -20.5 -8t-21 8t-8 21q0 12 8 20t21 8t20.5 -8t7.5 -20q0 -13 -7.5 -21zM85 626h854q12 0 20 -8t8 -21v-341q0 -13 -8 -20.5t-20 -7.5h-143v-143
q0 -12 -7.5 -20t-20.5 -8h-512q-13 0 -20.5 8t-7.5 20v143h-143q-12 0 -20 7.5t-8 20.5v341q0 13 8 21t20 8zM740 114v227h-456v-227h456zM796 284h114v285h-796v-285h114v57h-57v57h682v-57h-57v-57z"/>
            <glyph glyph-name="q" unicode="q" horiz-adv-x="967"
                   d="M366 242l-227 -228q-15 -14 -34 -14t-33.5 14.5t-14.5 34t14 33.5l228 227q28 -39 67 -67zM781.5 724.5q-76.5 76.5 -184.5 76.5q-109 0 -184 -77q-76 -77 -76 -184q0 -106 76 -184q75 -76 184 -76q108 0 184.5 76.5t76.5 183.5q0 108 -76.5 184.5zM476 828.5
q57 24.5 121 24.5q130 0 221 -91q43 -43 67.5 -100t24.5 -121.5t-24.5 -121.5t-67 -99.5t-99.5 -67t-121.5 -24.5t-121.5 24.5t-99.5 67t-67.5 99.5t-25 121.5t25 121.5t67.5 99.5t99.5 67z"/>
            <glyph glyph-name="r" unicode="r" horiz-adv-x="910"
                   d="M284 882v-199h57q103 0 196 -41.5t163.5 -111.5t111.5 -163t41 -196v-114q0 -12 -8 -20.5t-20 -8.5t-20.5 8.5t-8.5 20.5v114q0 91 -36.5 174t-99 145t-145 99t-174.5 37h-57v-199l-227 227z"/>
            <glyph glyph-name="s" unicode="s" horiz-adv-x="796"
                   d="M197 656q-83 -83 -83 -201q0 -12 -8.5 -20t-20.5 -8t-20 8t-8 20q0 139 100 241q87 89 217 99q13 1 26 1q112 -1 202 -69l125 126v-285h-284l118 119q-74 52 -161 52q-12 0 -26 -1q-102 -7 -177 -82zM690.5 475.5q8.5 8.5 20.5 8.5t20 -8.5t8 -20.5q0 -65 -25 -128
q-24 -61 -75 -113q-87 -89 -217 -99q-13 -1 -26 -1q-112 1 -202 69l-125 -125v284h284l-118 -119q74 -52 161 -52q12 0 26 1q102 7 177 82q83 83 83 201q0 12 8.5 20.5z"/>
            <glyph glyph-name="t" unicode="t" horiz-adv-x="995"
                   d="M349 512v-191h-191v191h191zM840 512v-191h-191v191h191zM572 88q12 -40 85 -42h32v-44l-385 -2v44h32q52 0 71 18q8 9 15 25.5t7 90.5v688h-28q-65 0 -119 -38q-78 -60 -92 -236l-40 2l8 316l681 2l6 -316l-41 -2q-20 158 -79 222q-50 52 -140 52h-21v-688q0 -74 8 -92z
"/>
            <glyph glyph-name="u" unicode="u" horiz-adv-x="685"
                   d="M398 683v-541q0 -12 -8.5 -20t-20 -8t-20 8t-8.5 20v541h-199l228 227l227 -227h-199zM150.5 48.5q8.5 8.5 19.5 8.5h399q11 0 19.5 -8.5t8.5 -20t-8.5 -20t-19.5 -8.5h-399q-11 0 -19.5 8.5t-8.5 20t8.5 20z"/>
            <glyph glyph-name="v" unicode="v" horiz-adv-x="1024"
                   d="M666.5 822q-72.5 31 -154.5 31t-154.5 -31t-127 -85.5t-85.5 -127t-31 -154.5t31 -154.5t85.5 -126.5t127 -85.5t154.5 -31.5t154.5 31.5t127 85.5t85.5 126.5t31 154.5t-31 154.5t-85.5 127t-127 85.5zM335 874.5q83 35.5 177 35.5t177 -35.5t145 -97.5t97.5 -145
t35.5 -177t-35.5 -177t-97.5 -144.5t-145 -97.5t-177 -36t-177 36t-145 97.5t-97.5 144.5t-35.5 177t35.5 177t97.5 145t145 97.5zM768 633q15 0 25.5 -11t10.5 -25t-11 -25l-341 -341q-11 -11 -25 -11t-25 11l-171 171q-11 10 -11 24.5t10.5 25t25.5 10.5t25 -10l146 -146
l316 316q10 11 25 11z"/>
            <glyph glyph-name="w" unicode="w" horiz-adv-x="967"
                   d="M626 882l227 -228l-227 -227v199h-57q-92 0 -174.5 -37t-145 -99t-99 -145t-36.5 -174v-114q0 -12 -8.5 -20.5t-20.5 -8.5t-20 8.5t-8 20.5v114q0 103 41 196t111.5 163t163.5 111.5t196 41.5h57v199z"/>
            <glyph glyph-name="x" unicode="x" horiz-adv-x="1024"
                   d="M666.5 822q-72.5 31 -154.5 31t-154.5 -31t-127 -85.5t-85.5 -127t-31 -154.5t31 -154.5t85.5 -126.5t127 -85.5t154.5 -31.5t154.5 31.5t127 85.5t85.5 126.5t31 154.5t-31 154.5t-85.5 127t-127 85.5zM335 874.5q83 35.5 177 35.5t177 -35.5t145 -97.5t97.5 -145
t35.5 -177t-35.5 -177t-97.5 -144.5t-145 -97.5t-177 -36t-177 36t-145 97.5t-97.5 144.5t-35.5 177t35.5 177t97.5 145t145 97.5zM731 634l-179 -179l179 -179q9 -8 9 -20t-8.5 -20t-23.5 -8q-9 0 -17 8l-179 179l-179 -179q-8 -8 -23 -8q-9 0 -20 10q-6 5 -6 18q0 12 9 20
l179 179l-179 179q-9 8 -9 20t8.5 20.5t20.5 8.5t20 -9l179 -179l179 179q8 9 20 9t20.5 -8.5t8.5 -20.5t-9 -20z"/>
            <glyph glyph-name="y" unicode="y" horiz-adv-x="1024"
                   d="M85 910h854q12 0 20 -7.5t8 -20.5v-854q0 -12 -8 -20t-20 -8h-854q-12 0 -20 8t-8 20v854q0 13 8 20.5t20 7.5zM114 57h796v796h-796v-796zM452.5 514.5q25.5 25.5 59.5 25.5t59.5 -23t25.5 -59.5t-25.5 -62t-59.5 -25.5t-59.5 25.5t-25.5 59.5t25.5 59.5zM411 556
q-41 -41 -41 -101v-28h-171q-13 0 -20.5 7.5t-7.5 20.5t7.5 21t20.5 8h120q8 72 62 121t136 49t137 -57q9 -8 9 -19.5t-8.5 -20t-20 -8.5t-20.5 9q-48 39 -105 39t-98 -41zM613 354q41 41 41 101v29h171q13 0 20.5 -8t7.5 -21t-7.5 -20.5t-20.5 -7.5h-120q-8 -73 -62 -122
t-136 -49t-137 57q-9 8 -9 19.5t8.5 20t20.5 8.5q10 0 20 -8q50 -40 106 -40t97 41z"/>
            <glyph glyph-name="z" unicode="z" horiz-adv-x="967"
                   d="M366 242l-227 -228q-15 -14 -34 -14t-33.5 14.5t-14.5 34t14 33.5l228 227q28 -39 67 -67zM781.5 724.5q-76.5 76.5 -184.5 76.5q-109 0 -184 -77q-76 -77 -76 -184q0 -106 76 -184q75 -76 184 -76q108 0 184.5 76.5t76.5 183.5q0 108 -76.5 184.5zM476 828.5
q57 24.5 121 24.5q130 0 221 -91q43 -43 67.5 -100t24.5 -121.5t-24.5 -121.5t-67 -99.5t-99.5 -67t-121.5 -24.5t-121.5 24.5t-99.5 67t-67.5 99.5t-25 121.5t25 121.5t67.5 99.5t99.5 67zM626 569h142q12 0 20 -8.5t8 -20t-8 -20t-20 -8.5h-142v-142q0 -12 -8.5 -20.5
t-20 -8.5t-20 8.5t-8.5 20.5v142h-142q-12 0 -20.5 8.5t-8.5 20t8.5 20t20.5 8.5h142v142q0 12 8.5 20.5t20 8.5t20 -8.5t8.5 -20.5v-142z"/>
            <glyph glyph-name="braceleft" unicode="{"
                   d="M0 960h1024v-1024z"/>
            <glyph glyph-name="bar" unicode="|"
            />
            <glyph glyph-name="braceright" unicode="}"
            />
            <glyph glyph-name="asciitilde" unicode="~"
            />
            <glyph glyph-name="uni007F"
            />
            <glyph glyph-name="uni0080"
            />
            <glyph glyph-name="uni0081"
            />
            <glyph glyph-name="uni0082"
            />
            <glyph glyph-name="uni0083"
            />
            <glyph glyph-name="uni0084"
            />
            <glyph glyph-name="uni0085" unicode="&#x85;"
            />
            <glyph glyph-name="uni0086"
            />
            <glyph glyph-name="uni0087"
            />
            <glyph glyph-name="uni0088"
            />
            <glyph glyph-name="uni0089"
            />
            <glyph glyph-name="uni008A"
            />
            <glyph glyph-name="uni008B"
            />
            <glyph glyph-name="uni008C"
            />
            <glyph glyph-name="uni008D"
            />
            <glyph glyph-name="uni008E"
            />
            <glyph glyph-name="uni008F"
            />
            <glyph glyph-name="uni0090"
            />
            <glyph glyph-name="uni0091"
            />
            <glyph glyph-name="uni0092"
            />
            <glyph glyph-name="uni0093"
            />
            <glyph glyph-name="uni0094"
            />
            <glyph glyph-name="uni0095"
            />
            <glyph glyph-name="uni0096"
            />
            <glyph glyph-name="uni0097"
            />
            <glyph glyph-name="uni0098"
            />
            <glyph glyph-name="uni0099"
            />
            <glyph glyph-name="uni009A"
            />
            <glyph glyph-name="uni009B"
            />
            <glyph glyph-name="uni009C"
            />
            <glyph glyph-name="uni009D"
            />
            <glyph glyph-name="uni009E"
            />
            <glyph glyph-name="uni009F"
            />
            <glyph glyph-name="uni00A0" unicode="&#xa0;"
            />
            <glyph glyph-name="exclamdown" unicode="&#xa1;"
            />
            <glyph glyph-name="cent" unicode="&#xa2;"
            />
            <glyph glyph-name="sterling" unicode="&#xa3;"
            />
            <glyph glyph-name="currency" unicode="&#xa4;"
            />
            <glyph glyph-name="yen" unicode="&#xa5;"
            />
            <glyph glyph-name="brokenbar" unicode="&#xa6;"
            />
            <glyph glyph-name="section" unicode="&#xa7;" horiz-adv-x="513"
                   d="M123 122q-10 -8 -21.5 -8t-19.5 8t-8 20t8 20l293 293l-293 293q-8 8 -8 20t8 20q9 8 20.5 8t20.5 -8l333 -333z"/>
            <glyph glyph-name="dieresis" unicode="&#xa8;"
            />
            <glyph glyph-name="copyright" unicode="&#xa9;"
            />
            <glyph glyph-name="ordfeminine" unicode="&#xaa;"
            />
            <glyph glyph-name="guillemotleft" unicode="&#xab;"
            />
            <glyph glyph-name="logicalnot" unicode="&#xac;"
            />
            <glyph glyph-name="uni00AD" unicode="&#xad;"
            />
            <glyph glyph-name="registered" unicode="&#xae;"
            />
            <glyph glyph-name="macron" unicode="&#xaf;"
            />
            <glyph glyph-name="degree" unicode="&#xb0;"
            />
            <glyph glyph-name="plusminus" unicode="&#xb1;"
            />
            <glyph glyph-name="uni00B2" unicode="&#xb2;"
            />
            <glyph glyph-name="uni00B3" unicode="&#xb3;"
            />
            <glyph glyph-name="acute" unicode="&#xb4;"
            />
            <glyph glyph-name="mu" unicode="&#xb5;"
            />
            <glyph glyph-name="paragraph" unicode="&#xb6;"
            />
            <glyph glyph-name="periodcentered" unicode="&#xb7;"
            />
            <glyph glyph-name="cedilla" unicode="&#xb8;"
            />
            <glyph glyph-name="uni00B9" unicode="&#xb9;"
            />
            <glyph glyph-name="ordmasculine" unicode="&#xba;"
            />
            <glyph glyph-name="guillemotright" unicode="&#xbb;"
            />
            <glyph glyph-name="onequarter" unicode="&#xbc;"
            />
            <glyph glyph-name="onehalf" unicode="&#xbd;"
            />
            <glyph glyph-name="threequarters" unicode="&#xbe;"
            />
            <glyph glyph-name="questiondown" unicode="&#xbf;"
            />
            <glyph glyph-name="Agrave" unicode="&#xc0;"
            />
            <glyph glyph-name="Aacute" unicode="&#xc1;"
            />
            <glyph glyph-name="Acircumflex" unicode="&#xc2;"
            />
            <glyph glyph-name="Atilde" unicode="&#xc3;"
            />
            <glyph glyph-name="Adieresis" unicode="&#xc4;"
            />
            <glyph glyph-name="Aring" unicode="&#xc5;"
            />
            <glyph glyph-name="AE" unicode="&#xc6;"
            />
            <glyph glyph-name="Ccedilla" unicode="&#xc7;"
            />
            <glyph glyph-name="Egrave" unicode="&#xc8;"
            />
            <glyph glyph-name="Eacute" unicode="&#xc9;"
            />
            <glyph glyph-name="Ecircumflex" unicode="&#xca;"
            />
            <glyph glyph-name="Edieresis" unicode="&#xcb;"
            />
            <glyph glyph-name="Igrave" unicode="&#xcc;"
            />
            <glyph glyph-name="Iacute" unicode="&#xcd;"
            />
            <glyph glyph-name="Icircumflex" unicode="&#xce;"
            />
            <glyph glyph-name="Idieresis" unicode="&#xcf;"
            />
            <glyph glyph-name="Eth" unicode="&#xd0;"
            />
            <glyph glyph-name="Ntilde" unicode="&#xd1;"
            />
            <glyph glyph-name="Ograve" unicode="&#xd2;"
            />
            <glyph glyph-name="Oacute" unicode="&#xd3;"
            />
            <glyph glyph-name="Ocircumflex" unicode="&#xd4;"
            />
            <glyph glyph-name="Otilde" unicode="&#xd5;"
            />
            <glyph glyph-name="Odieresis" unicode="&#xd6;"
            />
            <glyph glyph-name="multiply" unicode="&#xd7;"
            />
            <glyph glyph-name="Oslash" unicode="&#xd8;"
            />
            <glyph glyph-name="Ugrave" unicode="&#xd9;"
            />
            <glyph glyph-name="Uacute" unicode="&#xda;"
            />
            <glyph glyph-name="Ucircumflex" unicode="&#xdb;"
            />
            <glyph glyph-name="Udieresis" unicode="&#xdc;" horiz-adv-x="1024"
                   d="M626 853h284v-284l-122 122l-199 -199q-8 -8 -23 -8q-9 0 -20 10q-6 5 -6 18q0 12 9 20l199 199zM236 219l199 199q8 9 20 9t20.5 -8.5t8.5 -20.5t-9 -20l-199 -199l122 -122h-284v284z"/>
            <glyph glyph-name="Yacute" unicode="&#xdd;"
            />
            <glyph glyph-name="Thorn" unicode="&#xde;"
            />
            <glyph glyph-name="germandbls" unicode="&#xdf;" horiz-adv-x="1024"
                   d="M231 793h562q24 0 40.5 -16.5t16.5 -40.5v-562q0 -24 -16.5 -40.5t-40.5 -16.5h-562q-24 0 -40.5 16.5t-16.5 40.5v562q0 24 16.5 40.5t40.5 16.5zM231 174h562v562h-562v-562zM918.5 724.5q8.5 8.5 20 8.5t20 -8.5t8.5 -19.5v-499q0 -12 -8.5 -20.5t-20 -8.5t-20 8.5
t-8.5 20.5v499q0 11 8.5 19.5zM65.5 724.5q8.5 8.5 20 8.5t20 -8.5t8.5 -19.5v-499q0 -12 -8.5 -20.5t-20 -8.5t-20 8.5t-8.5 20.5v499q0 11 8.5 19.5z"/>
            <glyph glyph-name="agrave" unicode="&#xe0;"
            />
            <glyph glyph-name="aacute" unicode="&#xe1;"
            />
            <glyph glyph-name="acircumflex" unicode="&#xe2;"
            />
            <glyph glyph-name="atilde" unicode="&#xe3;"
            />
            <glyph glyph-name="adieresis" unicode="&#xe4;" horiz-adv-x="228"
                   d="M155 57h-82v120h82v-120zM149 620l-16 -363h-39l-16 363v233h71v-233z"/>
            <glyph glyph-name="aring" unicode="&#xe5;"
            />
            <glyph glyph-name="ae" unicode="&#xe6;"
            />
            <glyph glyph-name="ccedilla" unicode="&#xe7;"
            />
            <glyph glyph-name="egrave" unicode="&#xe8;"
            />
            <glyph glyph-name="eacute" unicode="&#xe9;"
            />
            <glyph glyph-name="ecircumflex" unicode="&#xea;"
            />
            <glyph glyph-name="edieresis" unicode="&#xeb;"
            />
            <glyph glyph-name="igrave" unicode="&#xec;"
            />
            <glyph glyph-name="iacute" unicode="&#xed;"
            />
            <glyph glyph-name="icircumflex" unicode="&#xee;"
            />
            <glyph glyph-name="idieresis" unicode="&#xef;"
            />
            <glyph glyph-name="eth" unicode="&#xf0;"
            />
            <glyph glyph-name="ntilde" unicode="&#xf1;"
            />
            <glyph glyph-name="ograve" unicode="&#xf2;"
            />
            <glyph glyph-name="oacute" unicode="&#xf3;"
            />
            <glyph glyph-name="ocircumflex" unicode="&#xf4;"
            />
            <glyph glyph-name="otilde" unicode="&#xf5;"
            />
            <glyph glyph-name="odieresis" unicode="&#xf6;"
            />
            <glyph glyph-name="divide" unicode="&#xf7;"
            />
            <glyph glyph-name="oslash" unicode="&#xf8;"
            />
            <glyph glyph-name="ugrave" unicode="&#xf9;"
            />
            <glyph glyph-name="uacute" unicode="&#xfa;"
            />
            <glyph glyph-name="ucircumflex" unicode="&#xfb;"
            />
            <glyph glyph-name="udieresis" unicode="&#xfc;" horiz-adv-x="1024"
                   d="M910 882q12 0 20.5 -8.5t8.5 -20t-9 -20.5l-199 -199l122 -122h-284v284l122 -122l199 199q8 9 20 9zM94 77l199 199l-122 122h284v-284l-122 122l-199 -199q-9 -9 -23 -9q-8 0 -19 11q-7 7 -7 18q0 12 9 20z"/>
        </font>
</defs>
</svg>
