<?xml version="1.0" standalone="no"?>
<!DOCTYPE svg PUBLIC "-//W3C//DTD SVG 1.1//EN" "http://www.w3.org/Graphics/SVG/1.1/DTD/svg11.dtd" >
<svg xmlns="http://www.w3.org/2000/svg" version="1.1">
    <metadata>
        Created by FontForge 20150304 at Mon Apr 27 16:34:47 2015
        By CreativeDirection
        Copyright (c) 2015, Deutsche Telekom AG Product-Design
    </metadata>
    <defs>
        <font id="teleicon-solid" horiz-adv-x="0">
            <font-face
                    font-family="TeleIcon"
                    font-weight="700"
                    font-stretch="normal"
                    units-per-em="1024"
                    panose-1="0 0 0 0 0 0 0 0 0 0"
                    ascent="960"
                    descent="-64"
                    x-height="853"
                    cap-height="910"
                    bbox="0 -21 1025 967"
                    underline-thickness="0"
                    underline-position="0"
                    unicode-range="U+0020-00FC"
            />
            <missing-glyph horiz-adv-x="374"
                           d="M34 0v682h272v-682h-272zM68 34h204v614h-204v-614z"/>
            <glyph glyph-name=".notdef" horiz-adv-x="374"
                   d="M34 0v682h272v-682h-272zM68 34h204v614h-204v-614z"/>
            <glyph glyph-name=".null"
            />
            <glyph glyph-name="nonmarkingreturn" horiz-adv-x="341"
            />
            <glyph glyph-name="space" unicode=" "
                   d="M0 0z"/>
            <glyph glyph-name="exclam" unicode="!" horiz-adv-x="1024"
                   d="M85 910h854q11 0 19.5 -8t8.5 -20v-854q0 -11 -8.5 -19.5t-19.5 -8.5h-854q-11 0 -19.5 8.5t-8.5 19.5v854q0 12 8.5 20t19.5 8zM557 739h-89v-164l21 -247h44l24 248v163zM461 171h102v102h-102v-102z"/>
            <glyph glyph-name="quotedbl" unicode="&#x22;" horiz-adv-x="795"
                   d="M398 683l341 -342h-682z"/>
            <glyph glyph-name="numbersign" unicode="#"
            />
            <glyph glyph-name="dollar" unicode="$" horiz-adv-x="795"
                   d="M398 284l-341 342h682z"/>
            <glyph glyph-name="percent" unicode="%" horiz-adv-x="512"
                   d="M56 455l342 341v-682z"/>
            <glyph glyph-name="ampersand" unicode="&#x26;" horiz-adv-x="681"
                   d="M398 626v-569q0 -24 -16.5 -40.5t-40.5 -16.5t-40.5 16.5t-16.5 40.5v569h-227l284 284l284 -284h-227z"/>
            <glyph glyph-name="quotesingle" unicode="'"
            />
            <glyph glyph-name="parenleft" unicode="(" horiz-adv-x="624"
                   d="M227 284v569q0 24 16.5 40.5t40.5 16.5t40.5 -16.5t16.5 -40.5v-569h227l-284 -284l-284 284h227z"/>
            <glyph glyph-name="parenright" unicode=")" horiz-adv-x="1024"
                   d="M341 512h569q24 0 40.5 -16.5t16.5 -40t-16.5 -40.5t-40.5 -17h-569v-227l-284 284l284 285v-228z"/>
            <glyph glyph-name="asterisk" unicode="*" horiz-adv-x="1024"
                   d="M512 879q17 0 22 -16l97 -294h313q18 0 22 -16q5 -18 -9 -26l-253 -188l97 -298q2 -7 0 -14q-5 -16 -22 -16q-8 0 -14 4l-253 184l-253 -184q-6 -4 -14 -4q-9 0 -14 4q-12 10 -8 26l97 298l-254 188q-13 9 -8 26q5 16 22 16h313l97 294q5 16 22 16z"/>
            <glyph glyph-name="plus" unicode="+" horiz-adv-x="1024"
                   d="M569 512h341q24 0 40.5 -16.5t16.5 -40t-16.5 -40.5t-40.5 -17h-341v-341q0 -24 -17 -40.5t-40 -16.5t-40 16.5t-17 40.5v341h-341q-24 0 -40.5 17t-16.5 40.5t16.5 40t40.5 16.5h341v341q0 24 17 40.5t40 16.5t40 -16.5t17 -40.5v-341z"/>
            <glyph glyph-name="comma" unicode=","
            />
            <glyph glyph-name="hyphen" unicode="-" horiz-adv-x="1024"
                   d="M114 512h796q24 0 40.5 -16.5t16.5 -40t-16.5 -40.5t-40.5 -17h-796q-24 0 -40.5 17t-16.5 40.5t16.5 40t40.5 16.5z"/>
            <glyph glyph-name="period" unicode="."
            />
            <glyph glyph-name="slash" unicode="/" horiz-adv-x="1024"
                   d="M683 398h-569q-24 0 -40.5 17t-16.5 40.5t16.5 40t40.5 16.5h569v228l284 -285l-284 -284v227z"/>
            <glyph glyph-name="zero" unicode="0" horiz-adv-x="1024"
                   d="M569 910h398v-398h-398v398zM57 910h398v-398h-398v398zM57 398h398v-398h-398v398zM569 398h398v-398h-398v398z"/>
            <glyph glyph-name="one" unicode="1" horiz-adv-x="1024"
                   d="M626 455l341 341v-682zM228 455l341 341v-682zM73.5 130.5q-16.5 16.5 -16.5 40.5v569q0 23 16.5 39.5t40.5 16.5q23 0 40 -16.5t17 -39.5v-569q0 -24 -17 -40.5t-40 -16.5q-24 0 -40.5 16.5z"/>
            <glyph glyph-name="two" unicode="2" horiz-adv-x="624"
                   d="M227 455l342 341v-682zM73.5 130.5q-16.5 16.5 -16.5 40.5v569q0 23 16.5 39.5t39.5 16.5q24 0 40.5 -16.5t16.5 -39.5v-569q0 -24 -16.5 -40.5t-40.5 -16.5q-23 0 -39.5 16.5z"/>
            <glyph glyph-name="three" unicode="3" horiz-adv-x="852"
                   d="M455 455l341 341v-682zM57 455l341 341v-682z"/>
            <glyph glyph-name="four" unicode="4" horiz-adv-x="681"
                   d="M56 114v682l518 -341z"/>
            <glyph glyph-name="five" unicode="5" horiz-adv-x="681"
                   d="M57 796h227v-682h-227v682zM398 796h227v-682h-227v682z"/>
            <glyph glyph-name="six" unicode="6" horiz-adv-x="795"
                   d="M57 796h682v-682h-682v682z"/>
            <glyph glyph-name="seven" unicode="7" horiz-adv-x="852"
                   d="M57 114v682l341 -341zM455 114v682l341 -341z"/>
            <glyph glyph-name="eight" unicode="8" horiz-adv-x="567"
                   d="M398 455l-342 -341v682zM471.5 130.5q-16.5 16.5 -16.5 40.5v569q0 23 16.5 39.5t40.5 16.5q23 0 39.5 -16.5t16.5 -39.5v-569q0 -24 -16.5 -40.5t-39.5 -16.5q-24 0 -40.5 16.5z"/>
            <glyph glyph-name="nine" unicode="9" horiz-adv-x="1024"
                   d="M796 455l-341 -341v682zM398 455l-341 -341v682zM870 130.5q-17 16.5 -17 40.5v569q0 23 17 39.5t40 16.5q24 0 40.5 -16.5t16.5 -39.5v-569q0 -24 -16.5 -40.5t-40.5 -16.5q-23 0 -40 16.5z"/>
            <glyph glyph-name="colon" unicode=":" horiz-adv-x="851"
                   d="M219 406.5q-8 -8.5 -20 -8.5h-114q-12 0 -20 8.5t-8 20.5v113q0 12 8 20.5t20 8.5h114q12 0 20 -8.5t8 -20.5v-113q0 -12 -8 -20.5zM503.5 406.5q-8.5 -8.5 -20.5 -8.5h-113q-12 0 -20.5 8.5t-8.5 20.5v113q0 12 8.5 20.5t20.5 8.5h113q12 0 20.5 -8.5t8.5 -20.5v-113
q0 -12 -8.5 -20.5zM788 406.5q-8 -8.5 -20 -8.5h-114q-12 0 -20 8.5t-8 20.5v113q0 12 8 20.5t20 8.5h114q12 0 20 -8.5t8 -20.5v-113q0 -12 -8 -20.5z"/>
            <glyph glyph-name="semicolon" unicode=";" horiz-adv-x="795"
                   d="M398 796q142 0 241.5 -99.5t99.5 -241.5t-99.5 -241.5t-241.5 -99.5t-241.5 99.5t-99.5 241.5t99.5 241.5t241.5 99.5z"/>
            <glyph glyph-name="less" unicode="&#x3c;" horiz-adv-x="567"
                   d="M70 605l1 13q4 100 51 161q57 74 159 74q98 0 158 -62q59 -59 59 -152q0 -67 -34 -123q-20 -32 -34 -47l-42 -42q-50 -54 -56 -113v-43h-104q5 77 9 97q9 43 22 61q32 44 50 64q38 41 56 78q13 27 13 59q0 49 -26 84q-24 32 -72 32q-94 0 -98 -141h-112zM348 57h-141v140
h141v-140z"/>
            <glyph glyph-name="equal" unicode="=" horiz-adv-x="1024"
                   d="M114 683q-24 0 -40.5 16.5t-16.5 40.5q0 23 16.5 39.5t40.5 16.5h796q24 0 40.5 -16.5t16.5 -39.5q0 -24 -16.5 -40.5t-40.5 -16.5h-796zM114 114q-24 0 -40.5 16.5t-16.5 40.5q0 23 16.5 40t40.5 17h796q24 0 40.5 -17t16.5 -40q0 -24 -16.5 -40.5t-40.5 -16.5h-796z
M114 398q-24 0 -40.5 17t-16.5 40q0 24 16.5 40.5t40.5 16.5h796q24 0 40.5 -16.5t16.5 -40.5q0 -23 -16.5 -40t-40.5 -17h-796z"/>
            <glyph glyph-name="greater" unicode="&#x3e;" horiz-adv-x="512"
                   d="M342 910v-170h-114v170h114zM342 114h114v-114h-342v114h114v398h-114v114h228v-512z"/>
            <glyph glyph-name="question" unicode="?" horiz-adv-x="1024"
                   d="M85 910h854q11 0 19.5 -8t8.5 -20v-854q0 -11 -8.5 -19.5t-19.5 -8.5h-854q-11 0 -19.5 8.5t-8.5 19.5v854q0 12 8.5 20t19.5 8zM457 171h100l1 100h-101v-100zM359 562h80q4 101 70 101q37 0 52 -22q18 -26 18 -61q0 -26 -9 -43q-10 -19 -45 -60q-20 -23 -27 -36
q-9 -16 -14 -30q-9 -21 -12 -87h75v30q2 43 39 82l30 29q6 7 12 15q37 45 37 106q0 67 -42 109q-45 45 -113 45q-36 0 -64 -14q-83 -42 -86 -155z"/>
            <glyph glyph-name="at" unicode="@"
            />
            <glyph glyph-name="A" unicode="A" horiz-adv-x="909"
                   d="M678 308q3 -13 3 -36q0 -19 -3 -36q-13 -60 -57 -60q-35 8 -51 37q-11 20 -11 60q0 56 27 83q14 14 32 14q46 0 60 -62zM57 57v626h796v-626q0 -24 -16.5 -40.5t-40.5 -16.5h-682q-24 0 -40.5 16.5t-16.5 40.5zM432 124v62h-205q9 37 31 61q12 13 66 50q38 26 62 50
q50 50 50 115q0 77 -62 115q-33 20 -77 20q-67 0 -102 -45q-33 -42 -35 -101h71q0 29 9 48q18 37 56 37q37 0 55 -28q13 -20 13 -46q0 -61 -62 -104q-29 -19 -46 -32q-61 -47 -84 -97q-16 -35 -16 -105h276zM552 381q8 156 74 156q43 0 51 -56h68q-4 62 -51 97
q-24 18 -73 18q-28 0 -55 -18q-83 -55 -83 -231q0 -58 10 -101q30 -132 129 -132q62 0 99 52q33 43 33 110q0 68 -32 110q-34 44 -88 44q-51 0 -82 -49zM853 910v-170h-796v170h796z"/>
            <glyph glyph-name="B" unicode="B" horiz-adv-x="966"
                   d="M722.5 73.5q-16.5 -16.5 -40 -16.5t-40 16.5t-16.5 40t16.5 40.5t40 17t40 -17t16.5 -40.5t-16.5 -40zM381.5 73.5q-16.5 -16.5 -40 -16.5t-40.5 16.5t-17 40t17 40.5t40.5 17t40 -17t16.5 -40.5t-16.5 -40zM165 740h-80q-12 0 -20 8t-8 20t8 20t20 8h80q23 0 40.5 -15
t21.5 -36l76 -456q0 -5 5 -5h460q12 0 20 -8t8 -20t-8 -20t-20 -8h-460q-22 0 -40 15t-21 36l-77 456q0 5 -5 5zM284 740h580q25 0 37 -16q10 -14 9 -28q-1 -10 -1 -12l-80 -229q-5 -23 -19 -40t-37 -17h-432z"/>
            <glyph glyph-name="C" unicode="C" horiz-adv-x="909"
                   d="M114 740h398q23 0 40 -17t17 -40v-626q0 -24 -17 -40.5t-40 -16.5h-398q-24 0 -40.5 16.5t-16.5 40.5v626q0 23 16.5 40t40.5 17zM398 910h398q24 0 40.5 -16.5t16.5 -40.5v-682q0 -24 -16.5 -40.5t-40.5 -16.5h-170v569q0 47 -33.5 80t-80.5 33h-171v57q0 24 17 40.5
t40 16.5z"/>
            <glyph glyph-name="D" unicode="D" horiz-adv-x="795"
                   d="M512 853h199q13 0 20.5 -7.5t7.5 -20.5t-7.5 -21t-20.5 -8h-626q-13 0 -20.5 8t-7.5 21t7.5 20.5t20.5 7.5h199v29q0 13 8 20.5t21 7.5h170q13 0 21 -7.5t8 -20.5v-29zM114 28l-57 712h682l-57 -712q0 -12 -7.5 -20t-20.5 -8h-512q-9 0 -18.5 8t-9.5 20zM284 148v501
q0 34 -28 34q-13 0 -21 -10.5t-8 -23.5v-501q0 -34 29 -34q28 0 28 34zM426 148v501q0 34 -28 34q-13 0 -20.5 -10.5t-7.5 -23.5v-501q0 -34 28 -34t28 34zM569 148v501q0 34 -29 34q-13 0 -20.5 -10.5t-7.5 -23.5v-501q0 -34 28 -34q29 0 29 34z"/>
            <glyph glyph-name="E" unicode="E" horiz-adv-x="1024"
                   d="M85 796h854q11 0 19.5 -8t8.5 -20v-626q0 -12 -8.5 -20t-19.5 -8h-854q-11 0 -19.5 8t-8.5 20v626q0 12 8.5 20t19.5 8zM853 427h57v57h-57v256h-739v-569h739v256zM796 683v-455h-625v455h625z"/>
            <glyph glyph-name="F" unicode="F" horiz-adv-x="1024"
                   d="M398 853l131 -113h-472v113h341zM57 683h853q24 0 40.5 -17t16.5 -40v-455q0 -24 -16.5 -40.5t-40.5 -16.5h-796q-24 0 -40.5 16.5t-16.5 40.5v512z"/>
            <glyph glyph-name="G" unicode="G" horiz-adv-x="966"
                   d="M910 910v-114h-853v114h853zM398 398l-341 342h853l-341 -342v-227l-171 -171v398z"/>
            <glyph glyph-name="H" unicode="H" horiz-adv-x="1024"
                   d="M587 359l-75 -75v-113h-114v-114h-114l-56 -57h-86q-28 0 -48 20l-18 17q-7 8 -13 22.5t-6 25.5v57q0 28 19 49l340 339q-18 50 -18 96q0 116 84 201q81 83 201 83q117 0 200 -83q84 -84 84 -201q0 -119 -84 -202q-39 -38 -90 -60.5t-104 -22.5q-52 0 -102 18zM679 622
q25 -25 60.5 -25t60.5 25t25 60.5t-25 60.5t-60.5 25t-60.5 -25t-25 -60.5t25 -60.5z"/>
            <glyph glyph-name="I" unicode="I" horiz-adv-x="1024"
                   d="M114 910h796q22 0 39.5 -17.5t17.5 -39.5v-625q0 -22 -17.5 -39.5t-39.5 -17.5h-398l-228 -171v171h-170q-22 0 -39.5 17.5t-17.5 39.5v625q0 22 17.5 39.5t39.5 17.5zM228 341h284v57h-284v-57zM228 512h568v57h-568v-57zM228 683h568v57h-568v-57z"/>
            <glyph glyph-name="J" unicode="J" horiz-adv-x="909"
                   d="M119 773l43 43q9 9 28 9q10 0 19 -9l162 -162q9 -7 9 -23t-9 -23l-42 -42l14 -20q41 -56 105 -119q45 -45 97 -82l19 -14l43 42q8 8 23 8.5t23 -8.5l163 -162q9 -9 9 -23t-9 -23l-54 -54l-16 -12q-5 -4 -43 -13q-4 -1 -9 -1q-78 0 -258 159q-119 105 -210 210
q-129 149 -141 235q0 2 1 8q11 56 33 76z"/>
            <glyph glyph-name="K" unicode="K" horiz-adv-x="1024"
                   d="M740 834v-111l179 179q8 8 19.5 8t20.5 -8q8 -8 8 -20t-8 -20l-854 -854q-5 -5 -9 -6q-6 -2 -11 -2q-12 0 -22 10q-6 6 -6 18t8 21l236 235h-41q-13 0 -22.5 10t-9.5 23v276q0 14 9.5 23.5t22.5 9.5h206l240 222q11 11 20 11q14 0 14 -25zM726 56q-9 0 -20 11l-240 217
l274 278v-481q0 -25 -14 -25z"/>
            <glyph glyph-name="L" unicode="L" horiz-adv-x="795"
                   d="M85 512h626q12 0 20 -8.5t8 -19.5v-456q0 -11 -8 -19.5t-20 -8.5h-626q-12 0 -20 8.5t-8 19.5v456q0 11 8 19.5t20 8.5zM569 569v148q0 64 -54 100t-117 36t-117 -36t-54 -100v-148h-57v148q0 86 72 142q66 51 156 51q91 0 156 -51q72 -56 72 -142v-148h-57z"/>
            <glyph glyph-name="M" unicode="M" horiz-adv-x="793"
                   d="M567 455h113q13 0 21 -8t8 -20.5t-8 -20.5t-21 -8q0 -107 -72 -186q-71 -79 -178 -93v-62h137q12 0 20 -10.5t8 -23.5v-23h-398v23q0 13 8 23.5t20 10.5h137v62q-109 10 -178 89q-72 80 -72 190q-13 0 -21 8t-8 20.5t8 20.5t21 8h113v285q0 68 51.5 119t119.5 51
t119.5 -51t51.5 -119v-285zM168 398q0 -95 67.5 -161t160.5 -66t161 67q67 66 67 160h-57q0 -68 -51.5 -119t-119.5 -51t-119.5 51t-51.5 119h-57z"/>
            <glyph glyph-name="N" unicode="N" horiz-adv-x="1024"
                   d="M398 112v2h228v-2q0 -47 -33.5 -79.5t-80.5 -32.5t-80.5 32.5t-33.5 79.5zM747 730l172 172q8 8 19.5 8t20.5 -8q8 -8 8 -20t-8 -20l-854 -854q-8 -8 -20 -8t-20 8.5t-8 20t8 20.5l123 122h-34q-14 0 -24 10t-7 24l72 339q17 100 79 172q63 73 157 97v16q0 31 24.5 56
t56.5 25t56.5 -25t24.5 -56v-14q85 -20 154 -85zM348 171l471 471q26 -51 34 -98l48 -339q3 -14 -7 -24t-24 -10h-522z"/>
            <glyph glyph-name="O" unicode="O" horiz-adv-x="1024"
                   d="M335 874.5q83 35.5 177 35.5t177 -35.5t144.5 -97.5t97.5 -145t36 -177t-36 -177t-97.5 -144.5t-144.5 -97.5t-177 -36t-177 36t-144.5 97.5t-97.5 144.5t-36 177t36 177t97.5 145t144.5 97.5zM572 475l131 131l-40 40l-130 -129q-20 4 -26 4t-16 -4l-186 186l-41 -40
l186 -186q-4 -20 -4 -21q0 -27 19 -46t46 -19q26 0 45.5 19t19.5 46q0 11 -4 19z"/>
            <glyph glyph-name="P" unicode="P" horiz-adv-x="1024"
                   d="M74 512l20 20q113 113 267 113h27q9 -1 36 -6l249 249q18 18 44.5 18t44.5 -18l187 -186q18 -18 18 -45t-18 -45l-249 -248q16 -84 -13 -171.5t-99 -155.5l-19 -20zM74 97l167 167l80 -80l-167 -167q-17 -17 -34 -17q-63 0 -63 63q0 19 17 34z"/>
            <glyph glyph-name="Q" unicode="Q" horiz-adv-x="1024"
                   d="M910 284h-57v456h-682v-456h-57v456q0 23 16.5 39.5t40.5 16.5h682q24 0 40.5 -16.5t16.5 -39.5v-456zM90.5 147q-33.5 33 -33.5 81h910q0 -48 -33.5 -81t-80.5 -33h-682q-47 0 -80.5 33zM436 142h152q12 0 20 8.5t8 20t-8 20t-20 8.5h-152q-12 0 -20 -8.5t-8 -20t8 -20
t20 -8.5zM796 683v-399h-568v399h568z"/>
            <glyph glyph-name="R" unicode="R" horiz-adv-x="1024"
                   d="M284 114v34q0 9 17 16t40 7h342q23 0 40 -7t17 -16v-34h-456zM85 796h854q11 0 19.5 -8t8.5 -20v-512q0 -12 -8.5 -20t-19.5 -8h-370v-31h-114v31h-370q-11 0 -19.5 8t-8.5 20v512q0 12 8.5 20t19.5 8zM114 284h796v456h-796v-456zM853 683v-342h-682v342h682z"/>
            <glyph glyph-name="S" unicode="S" horiz-adv-x="1024"
                   d="M837 455q0 -23 -5 -58l110 -91q-27 -80 -86 -148l-134 49q-42 -37 -100 -58l-25 -141q-40 -8 -85 -8q-44 0 -86 8l-24 141q-56 20 -100 58l-134 -49q-59 68 -86 148l110 91q-5 35 -5 58t5 58l-110 92q27 78 86 148l134 -50q44 38 100 58l24 141q42 8 86 8t86 -8l24 -141
q56 -20 100 -58l134 50q59 -70 86 -148l-110 -92q5 -35 5 -58zM371 314q58 -58 141 -58t141 58t58 141t-58 141t-141 58t-141 -58t-58 -141t58 -141z"/>
            <glyph glyph-name="T" unicode="T" horiz-adv-x="982"
                   d="M341 512v-191h-191v191h191zM832 512v-191h-191v191h191z"/>
            <glyph glyph-name="U" unicode="U" horiz-adv-x="1024"
                   d="M391 803q50 50 121 50t121 -50t50 -120v-171q0 -71 -50 -121t-121 -50t-121 50t-50 121v171q0 70 50 120zM218 285h588q67 0 114 -47.5t47 -114.5v-66h-910v66q0 67 47 114.5t114 47.5z"/>
            <glyph glyph-name="V" unicode="V" horiz-adv-x="909"
                   d="M80 358q-18 17 -18 40t17.5 40t40 17t39.5 -17l171 -159l421 421q17 17 39.5 17t40 -17t17.5 -40t-18 -40l-500 -495z"/>
            <glyph glyph-name="W" unicode="W" horiz-adv-x="625"
                   d="M420 902q64 -8 107 -22q32 -11 37 -40l5 -29v-718l-5 -26q-5 -25 -37 -37q-86 -30 -223 -30q-54 0 -117.5 11.5t-86.5 18.5q-31 12 -37 37l-6 26v718l6 29q5 29 42.5 42t100.5 20.5t106.5 7.5t107.5 -8zM285 129v-29q0 -6 4 -10.5t10 -4.5h29q6 0 10 4.5t4 10.5v29
q0 13 -14 13h-29q-14 0 -14 -13zM114 171h399v625h-399v-625zM456 740v-512h-285v512h285z"/>
            <glyph glyph-name="X" unicode="X" horiz-adv-x="909"
                   d="M797 717l-262 -262l262 -261q16 -17 16 -40.5t-16 -40.5q-17 -16 -40.5 -16t-40.5 16l-261 262l-261 -262q-17 -16 -40.5 -16t-40.5 16q-16 17 -16 40.5t16 40.5l262 261l-262 262q-16 16 -16 39.5t16.5 40.5t40 17t40.5 -17l261 -261l261 261q17 17 40.5 17t40.5 -17
q16 -17 16 -40.5t-16 -39.5z"/>
            <glyph glyph-name="Y" unicode="Y" horiz-adv-x="1024"
                   d="M890.5 586q40.5 -17 70.5 -47t47 -70.5t17 -85.5t-16 -85.5t-41 -69.5h-228q-18 -57 -73 -57h-609q-36 21 -48 60q-10 31 -10 59q0 70 63 122q52 43 109 43q0 81 40 149q43 70 113 101q79 35 148 35q41 0 78 -12q119 -36 178 -136q47 11 84 11t77.5 -17z"/>
            <glyph glyph-name="Z" unicode="Z" horiz-adv-x="966"
                   d="M404 226l-201 -201q-25 -25 -60.5 -25t-60.5 25t-25 60t25 60l201 201q50 -77 121 -120zM476 828.5q57 24.5 121 24.5q130 0 221 -91q43 -43 67.5 -100t24.5 -121.5t-24.5 -121.5t-67 -99.5t-99.5 -67t-121.5 -24.5t-121.5 24.5t-99.5 67t-67.5 99.5t-25 121.5t25 121.5
t67.5 99.5t99.5 67zM427 512h341q12 0 20 8.5t8 20t-8 20t-20 8.5h-341q-12 0 -20.5 -8.5t-8.5 -20t8.5 -20t20.5 -8.5z"/>
            <glyph glyph-name="bracketleft" unicode="["
            />
            <glyph glyph-name="backslash" unicode="\"
            />
            <glyph glyph-name="bracketright" unicode="]"
            />
            <glyph glyph-name="asciicircum" unicode="^"
            />
            <glyph glyph-name="underscore" unicode="_"
            />
            <glyph glyph-name="grave" unicode="`"
            />
            <glyph glyph-name="a" unicode="a" horiz-adv-x="1024"
                   d="M798 858q75 0 125.5 -50.5t50.5 -123.5q0 -74 -51 -125l-461 -461q-70 -70 -171 -70q-103 0 -171 70q-70 72 -70 171q0 100 70 170l379 379q11 10 26 10t25 -10t10 -24.5t-10 -25.5l-379 -379q-50 -50 -50 -120t50 -120t120 -50t120 50l461 461q31 29 31 74q0 43 -31 74
q-30 30 -74 30t-74 -30l-461 -461q-12 -12 -12 -28q0 -17 14 -31q8 -7 25.5 -7.5t28.5 10.5l379 379q10 10 25 10t25.5 -10.5t10.5 -25t-11 -24.5l-379 -380q-31 -31 -78 -31t-79 32t-32 78q0 45 33 78l461 462q51 49 124 49z"/>
            <glyph glyph-name="b" unicode="b" horiz-adv-x="567"
                   d="M106 9q-9 -9 -19 -9q-17 0 -23.5 10t-6.5 18l-1 854q0 9 8 20q6 8 21 8h398q12 0 20.5 -8t8.5 -20v-854q0 -20 -18 -26q-6 -2 -12 -2q-10 -1 -19 9l-179 158z"/>
            <glyph glyph-name="c" unicode="c" horiz-adv-x="1024"
                   d="M57 853h455l-228 -227zM341 455q-23 0 -40 17t-17 40t17 40t40 17h569q24 0 40.5 -17t16.5 -40t-16.5 -40t-40.5 -17h-569zM341 0q-23 0 -40 16.5t-17 40.5q0 23 17 40t40 17h569q24 0 40.5 -17t16.5 -40q0 -24 -16.5 -40.5t-40.5 -16.5h-569zM341 228q-23 0 -40 16.5
t-17 39.5q0 24 17 40.5t40 16.5h569q24 0 40.5 -16.5t16.5 -40.5q0 -23 -16.5 -39.5t-40.5 -16.5h-569z"/>
            <glyph glyph-name="d" unicode="d" horiz-adv-x="681"
                   d="M284 455v398q0 24 16.5 40.5t40.5 16.5t40.5 -16.5t16.5 -40.5v-398h227l-284 -284l-284 284h227zM113 114h456q23 0 39.5 -17t16.5 -40q0 -24 -16.5 -40.5t-39.5 -16.5h-456q-23 0 -39.5 16.5t-16.5 40.5q0 23 16.5 40t39.5 17z"/>
            <glyph glyph-name="e" unicode="e" horiz-adv-x="909"
                   d="M755 836l82 -81q16 -17 16 -40.5t-17 -40.5l-527 -529l-163 163l528 528q18 17 41 17t40 -17zM105 268l162 -163l-175 -46q-4 -2 -12 -2q-2 0 -16 7q-2 1 -3 4t-2 5q-2 4 -2 11q0 4 2 8z"/>
            <glyph glyph-name="f" unicode="f" horiz-adv-x="795"
                   d="M512 626h227v-569q0 -21 -17.5 -39t-39.5 -18h-568q-22 0 -39.5 18t-17.5 39v796q0 22 17.5 39.5t39.5 17.5h341v-227q0 -22 17.5 -39.5t39.5 -17.5zM512 910l227 -227h-227v227z"/>
            <glyph glyph-name="g" unicode="g" horiz-adv-x="795"
                   d="M399 967v-171q71 0 133 -26.5t108 -73t72.5 -108.5t26.5 -133q0 -142 -99.5 -241.5t-241.5 -99.5t-241.5 99.5t-99.5 241.5q0 24 16.5 40.5t40 16.5t40 -16.5t16.5 -40.5q0 -94 67 -161q66 -66 161 -66t161 66q67 67 67 161q0 95 -67 160.5t-161 67.5v-171l-228 228z"/>
            <glyph glyph-name="h" unicode="h" horiz-adv-x="1024"
                   d="M512 853l445 -389q9 -8 10 -20t-7 -21q-9 -9 -24 -9q-9 0 -16 7l-408 357l-408 -357q-9 -8 -20.5 -7t-19.5 9.5t-7 20.5t10 20zM171 406l341 305l341 -305v-378q0 -11 -8 -19.5t-20 -8.5h-626q-12 0 -20 8.5t-8 19.5v378z"/>
            <glyph glyph-name="i" unicode="i" horiz-adv-x="1024"
                   d="M85 910h854q11 0 19.5 -8t8.5 -20v-854q0 -11 -8.5 -19.5t-19.5 -8.5h-854q-11 0 -19.5 8.5t-8.5 19.5v854q0 12 8.5 20t19.5 8zM569 740h-57v-114h57v114zM455 171h171v57h-57v341h-114v-57h57v-284h-57v-57z"/>
            <glyph glyph-name="j" unicode="j" horiz-adv-x="1024"
                   d="M28 398v68q0 24 29 63t153 63q59 11 137 16.5t195 5.5q116 0 243 -19q154 -23 187 -65q24 -31 24 -64v-68q0 -10 -8 -19t-21 -9h-239q-14 0 -24 10t-10 24v63l-23 5q-78 12 -153 12h-12q-75 0 -153 -12l-23 -5v-63q0 -14 -10 -24t-24 -10h-239q-29 0 -29 28z"/>
            <glyph glyph-name="k" unicode="k" horiz-adv-x="1024"
                   d="M569 834v-753q0 -25 -14 -25q-10 0 -19 11l-241 217h-206q-13 0 -22.5 10t-9.5 23v276q0 14 9.5 23.5t22.5 9.5h206l241 222q9 11 19 11q14 0 14 -25zM667 683q-7 10 -5 21.5t12 18.5t21.5 5t18.5 -12q82 -118 82 -261q0 -144 -78 -254q-9 -16 -22 -18q-11 -2 -22 4
q-9 5 -12 19q-2 11 5 21q73 104 73 228q0 125 -73 228zM854 97h-1q-6 -10 -18 -12t-21.5 4.5t-11.5 18t5 21.5q53 77 75 152q28 90 28 174q0 176 -103 326q-7 10 -5 21.5t11.5 18t21.5 4.5t18 -11q114 -160 114 -359q0 -186 -113 -358z"/>
            <glyph glyph-name="l" unicode="l" horiz-adv-x="1024"
                   d="M414 321q-15 12 -21 38q-1 4 -1 8q3 22 12 34q16 22 38 22h7h4h3h1h1q9 0 29 -14q21 -15 49 -15h7q32 0 57 25l228 227q25 27 25 63q0 35 -25 62q-25 25 -62.5 25t-62.5 -25l-93 -94q-17 -16 -40.5 -16t-40.5 16q-16 17 -16 40.5t16 40.5l94 93q55 57 143 57
q85 0 142 -57q59 -59 59 -142q0 -84 -59 -143l-228 -228q-59 -59 -135 -59q-81 0 -131 42zM116 59q-59 59 -59 143q0 85 59 142l221 222q48 48 127 57q9 1 18 1q67 -2 116 -38q18 -13 23 -37q1 -5 1 -10q-1 -18 -11 -32q-13 -18 -37 -23q-6 -1 -10 -1q-21 1 -36 13
q-18 14 -45 14q-4 1 -10 0q-36 -6 -55 -25l-222 -221q-25 -27 -25 -62q0 -36 25 -63q25 -24 62.5 -24t62.5 24l87 87q16 17 39.5 17t40.5 -16.5t17 -40t-17 -40.5l-87 -87q-59 -59 -142.5 -59t-142.5 59z"/>
            <glyph glyph-name="m" unicode="m" horiz-adv-x="1024"
                   d="M512 539l-455 257h910zM526 481l441 255v-537q0 -12 -8.5 -20t-19.5 -8h-854q-11 0 -19.5 8t-8.5 20v537l441 -255q9 -3 14 -3t14 3z"/>
            <glyph glyph-name="n" unicode="n" horiz-adv-x="1024"
                   d="M398 112v2h228v-2q0 -54 -35.5 -81.5t-78.5 -27.5t-78.5 27.5t-35.5 81.5zM853 544l48 -339q3 -14 -7 -24t-24 -10h-716q-14 0 -24 10t-7 24l72 339q17 100 79 171q64 74 157 98v16q0 39 25.5 58.5t56 19.5t55.5 -19.5t25 -58.5v-14q92 -21 169 -99q77 -76 91 -172z"/>
            <glyph glyph-name="o" unicode="o" horiz-adv-x="1024"
                   d="M335 874.5q83 35.5 177 35.5t177 -35.5t144.5 -97.5t97.5 -145t36 -177t-36 -177t-97.5 -144.5t-144.5 -97.5t-177 -36t-177 36t-144.5 97.5t-97.5 144.5t-36 177t36 177t97.5 145t144.5 97.5zM666 700q13 8 18 18q6 12 1 25.5t-19 20.5q-70 32 -147 32
q-72 0 -135.5 -26.5t-110.5 -74.5t-74.5 -111.5t-27.5 -135.5q0 -15 10.5 -25.5t25 -10.5t25 10.5t10.5 25.5q0 115 81 196q38 38 88.5 59.5t99.5 21.5q59 0 121 -25q10 -4 18 -4q9 0 16 4z"/>
            <glyph glyph-name="p" unicode="p" horiz-adv-x="1024"
                   d="M853 683h-682v142q0 13 7.5 20.5t20.5 7.5h626q13 0 20.5 -7.5t7.5 -20.5v-142zM284 142v199h456v-199q0 -12 -8.5 -20t-20.5 -8h-398q-12 0 -20.5 8t-8.5 20zM85 626h854q12 0 20 -8t8 -21v-341q0 -13 -8 -20.5t-20 -7.5h-143v113h57v57h-682v-57h57v-113h-143
q-12 0 -20 7.5t-8 20.5v341q0 13 8 21t20 8zM804 463q8 -8 21 -8t20.5 8t7.5 20.5t-7.5 20.5t-20.5 8t-21 -8t-8 -20.5t8 -20.5z"/>
            <glyph glyph-name="q" unicode="q" horiz-adv-x="966"
                   d="M781.5 724.5q-76.5 76.5 -184.5 76.5q-109 0 -184 -77q-76 -77 -76 -184q0 -106 76 -184q75 -76 184 -76q108 0 184.5 76.5t76.5 183.5q0 108 -76.5 184.5zM476 828.5q57 24.5 121 24.5q130 0 221 -91q43 -43 67.5 -100t24.5 -121.5t-24.5 -121.5t-67 -99.5t-99.5 -67
t-121.5 -24.5t-121.5 24.5t-99.5 67t-67.5 99.5t-25 121.5t25 121.5t67.5 99.5t99.5 67zM457 400q-59 59 -59 140q0 82 59 141t140 59q82 0 141 -59q58 -58 58 -140.5t-58.5 -141t-140 -58.5t-140.5 59zM404 226l-201 -201q-25 -25 -60.5 -25t-60.5 25t-25 60t25 60l201 201
q50 -77 121 -120z"/>
            <glyph glyph-name="r" unicode="r" horiz-adv-x="966"
                   d="M341 910v-227h29q110 0 208 -43.5t172 -117.5t117 -172t43 -208v-59q0 -24 -16.5 -41t-40 -17t-40.5 17t-17 41v59q0 85 -34.5 162.5t-93 136t-136 93.5t-162.5 35h-29v-228l-284 285z"/>
            <glyph glyph-name="s" unicode="s" horiz-adv-x="795"
                   d="M618 713l121 121v-322h-322l120 121q-60 49 -139 49t-139 -48t-79 -120h-2q-4 -19 -19 -31t-36.5 -12t-38.5 16.5t-17 39.5q0 4 3 16h-1q1 2 1.5 3.5t1.5 2.5v1q30 107 120 176q91 70 206 70q124 0 220 -83zM726 367h1q-31 -111 -120 -181q-92 -71 -209 -71
q-83 8 -220 82l-121 -121v322h322l-121 -121q65 -49 140 -49q79 0 139 48t79 121l1 -1q4 20 19 33.5t37.5 13.5t39 -17t16.5 -40q0 -4 -3 -19z"/>
            <glyph glyph-name="t" unicode="t" horiz-adv-x="995"
                   d="M349 512v-191h-191v191h191zM840 512v-191h-191v191h191zM572 88q12 -40 85 -42h32v-44l-385 -2v44h32q52 0 71 18q8 9 15 25.5t7 90.5v688h-28q-65 0 -119 -38q-78 -60 -92 -236l-40 2l8 316l681 2l6 -316l-41 -2q-20 158 -79 222q-50 52 -140 52h-21v-688q0 -74 8 -92z
"/>
            <glyph glyph-name="u" unicode="u" horiz-adv-x="738"
                   d="M398 626v-398q0 -24 -16.5 -40.5t-40.5 -16.5t-40.5 16.5t-16.5 40.5v398h-227l284 284l284 -284h-227zM113 114h456q23 0 39.5 -17t16.5 -40q0 -24 -16.5 -40.5t-39.5 -16.5h-456q-23 0 -39.5 16.5t-16.5 40.5q0 23 16.5 40t39.5 17z"/>
            <glyph glyph-name="v" unicode="v" horiz-adv-x="1024"
                   d="M335 874.5q83 35.5 177 35.5t177 -35.5t144.5 -97.5t97.5 -145t36 -177t-36 -177t-97.5 -144.5t-144.5 -97.5t-177 -36t-177 36t-144.5 97.5t-97.5 144.5t-36 177t36 177t97.5 145t144.5 97.5zM452 231l341 341q11 11 11 25t-14 28q-7 8 -22 8t-25 -11l-316 -316
l-146 146q-10 10 -25 10t-25.5 -10.5t-10.5 -25t11 -24.5l171 -171q11 -11 25 -11t25 11z"/>
            <glyph glyph-name="w" unicode="w" horiz-adv-x="966"
                   d="M626 910l284 -284l-284 -285v228h-29q-85 0 -162.5 -35t-136 -93.5t-93 -136t-34.5 -162.5v-59q0 -24 -17 -41t-40.5 -17t-40 17t-16.5 41v59q0 110 43 208t117 172t172 117.5t208 43.5h29v227z"/>
            <glyph glyph-name="x" unicode="x" horiz-adv-x="1024"
                   d="M335 874.5q83 35.5 177 35.5t177 -35.5t144.5 -97.5t97.5 -145t36 -177t-36 -177t-97.5 -144.5t-144.5 -97.5t-177 -36t-177 36t-144.5 97.5t-97.5 144.5t-36 177t36 177t97.5 145t144.5 97.5zM747 256q0 14 -11 25l-174 174l174 174q11 11 11 25t-13 28q-8 7 -23 7
t-25 -10l-174 -174l-174 174q-10 10 -25 10t-25.5 -10t-10.5 -24.5t11 -25.5l174 -174l-174 -174q-11 -11 -11 -25t13 -28q8 -7 23 -7t25 10l174 174l174 -174q13 -11 25 -11q7 0 13 3q23 10 23 33z"/>
            <glyph glyph-name="y" unicode="y" horiz-adv-x="1024"
                   d="M85 910h854q12 0 20 -7.5t8 -20.5v-854q0 -12 -8 -20t-20 -8h-854q-12 0 -20 8t-8 20v854q0 13 8 20.5t20 7.5zM178.5 476q-7.5 -8 -7.5 -21t7.5 -20.5t20.5 -7.5h171v28q0 60 41 101t99 41t98 -35q15 -13 26.5 -13t20 8.5t8.5 20.5q0 10 -9 19q-57 57 -142 57
q-76 0 -130.5 -49t-62.5 -121h-120q-13 0 -20.5 -8zM571.5 395.5q25.5 25.5 25.5 62t-25.5 59.5t-59.5 23t-59.5 -25.5t-25.5 -59.5t25.5 -59.5t59.5 -25.5t59.5 25.5zM705 427h120q13 0 20.5 7.5t7.5 20.5t-7.5 21t-20.5 8h-171v-29q0 -60 -41 -101t-98 -41q-56 0 -99 35
q-16 13 -26 13q-12 0 -20.5 -8.5t-8.5 -20.5q0 -10 9 -19q57 -57 142 -57q76 0 130.5 49t62.5 122z"/>
            <glyph glyph-name="z" unicode="z" horiz-adv-x="966"
                   d="M404 226l-201 -201q-25 -25 -60.5 -25t-60.5 25t-25 60t25 60l201 201q50 -77 121 -120zM476 828.5q57 24.5 121 24.5q130 0 221 -91q43 -43 67.5 -100t24.5 -121.5t-24.5 -121.5t-67 -99.5t-99.5 -67t-121.5 -24.5t-121.5 24.5t-99.5 67t-67.5 99.5t-25 121.5t25 121.5
t67.5 99.5t99.5 67zM626 512h142q12 0 20 8.5t8 20t-8 20t-20 8.5h-142v142q0 12 -8.5 20.5t-20 8.5t-20 -8.5t-8.5 -20.5v-142h-142q-12 0 -20.5 -8.5t-8.5 -20t8.5 -20t20.5 -8.5h142v-142q0 -12 8.5 -20.5t20 -8.5t20 8.5t8.5 20.5v142z"/>
            <glyph glyph-name="braceleft" unicode="{"
            />
            <glyph glyph-name="bar" unicode="|"
            />
            <glyph glyph-name="braceright" unicode="}"
            />
            <glyph glyph-name="asciitilde" unicode="~"
            />
            <glyph glyph-name="uni007F"
            />
            <glyph glyph-name="uni0080"
            />
            <glyph glyph-name="uni0081"
            />
            <glyph glyph-name="uni0082"
            />
            <glyph glyph-name="uni0083"
            />
            <glyph glyph-name="uni0084"
            />
            <glyph glyph-name="uni0085" unicode="&#x85;"
            />
            <glyph glyph-name="uni0086"
            />
            <glyph glyph-name="uni0087"
            />
            <glyph glyph-name="uni0088"
            />
            <glyph glyph-name="uni0089"
            />
            <glyph glyph-name="uni008A"
            />
            <glyph glyph-name="uni008B"
            />
            <glyph glyph-name="uni008C"
            />
            <glyph glyph-name="uni008D"
            />
            <glyph glyph-name="uni008E"
            />
            <glyph glyph-name="uni008F"
            />
            <glyph glyph-name="uni0090"
            />
            <glyph glyph-name="uni0091"
            />
            <glyph glyph-name="uni0092"
            />
            <glyph glyph-name="uni0093"
            />
            <glyph glyph-name="uni0094"
            />
            <glyph glyph-name="uni0095"
            />
            <glyph glyph-name="uni0096"
            />
            <glyph glyph-name="uni0097"
            />
            <glyph glyph-name="uni0098"
            />
            <glyph glyph-name="uni0099"
            />
            <glyph glyph-name="uni009A"
            />
            <glyph glyph-name="uni009B"
            />
            <glyph glyph-name="uni009C"
            />
            <glyph glyph-name="uni009D"
            />
            <glyph glyph-name="uni009E"
            />
            <glyph glyph-name="uni009F"
            />
            <glyph glyph-name="uni00A0" unicode="&#xa0;"
            />
            <glyph glyph-name="exclamdown" unicode="&#xa1;"
            />
            <glyph glyph-name="cent" unicode="&#xa2;"
            />
            <glyph glyph-name="sterling" unicode="&#xa3;"
            />
            <glyph glyph-name="currency" unicode="&#xa4;"
            />
            <glyph glyph-name="yen" unicode="&#xa5;"
            />
            <glyph glyph-name="brokenbar" unicode="&#xa6;"
            />
            <glyph glyph-name="section" unicode="&#xa7;" horiz-adv-x="512"
                   d="M456 455l-342 -341v682z"/>
            <glyph glyph-name="dieresis" unicode="&#xa8;"
            />
            <glyph glyph-name="copyright" unicode="&#xa9;"
            />
            <glyph glyph-name="ordfeminine" unicode="&#xaa;"
            />
            <glyph glyph-name="guillemotleft" unicode="&#xab;"
            />
            <glyph glyph-name="logicalnot" unicode="&#xac;"
            />
            <glyph glyph-name="uni00AD" unicode="&#xad;"
            />
            <glyph glyph-name="registered" unicode="&#xae;"
            />
            <glyph glyph-name="macron" unicode="&#xaf;"
            />
            <glyph glyph-name="degree" unicode="&#xb0;"
            />
            <glyph glyph-name="plusminus" unicode="&#xb1;"
            />
            <glyph glyph-name="uni00B2" unicode="&#xb2;"
            />
            <glyph glyph-name="uni00B3" unicode="&#xb3;"
            />
            <glyph glyph-name="acute" unicode="&#xb4;"
            />
            <glyph glyph-name="mu" unicode="&#xb5;"
            />
            <glyph glyph-name="paragraph" unicode="&#xb6;"
            />
            <glyph glyph-name="periodcentered" unicode="&#xb7;"
            />
            <glyph glyph-name="cedilla" unicode="&#xb8;"
            />
            <glyph glyph-name="uni00B9" unicode="&#xb9;"
            />
            <glyph glyph-name="ordmasculine" unicode="&#xba;"
            />
            <glyph glyph-name="guillemotright" unicode="&#xbb;"
            />
            <glyph glyph-name="onequarter" unicode="&#xbc;"
            />
            <glyph glyph-name="onehalf" unicode="&#xbd;"
            />
            <glyph glyph-name="threequarters" unicode="&#xbe;"
            />
            <glyph glyph-name="questiondown" unicode="&#xbf;"
            />
            <glyph glyph-name="Agrave" unicode="&#xc0;"
            />
            <glyph glyph-name="Aacute" unicode="&#xc1;"
            />
            <glyph glyph-name="Acircumflex" unicode="&#xc2;"
            />
            <glyph glyph-name="Atilde" unicode="&#xc3;"
            />
            <glyph glyph-name="Adieresis" unicode="&#xc4;"
            />
            <glyph glyph-name="Aring" unicode="&#xc5;"
            />
            <glyph glyph-name="AE" unicode="&#xc6;"
            />
            <glyph glyph-name="Ccedilla" unicode="&#xc7;"
            />
            <glyph glyph-name="Egrave" unicode="&#xc8;"
            />
            <glyph glyph-name="Eacute" unicode="&#xc9;"
            />
            <glyph glyph-name="Ecircumflex" unicode="&#xca;"
            />
            <glyph glyph-name="Edieresis" unicode="&#xcb;"
            />
            <glyph glyph-name="Igrave" unicode="&#xcc;"
            />
            <glyph glyph-name="Iacute" unicode="&#xcd;"
            />
            <glyph glyph-name="Icircumflex" unicode="&#xce;"
            />
            <glyph glyph-name="Idieresis" unicode="&#xcf;"
            />
            <glyph glyph-name="Eth" unicode="&#xd0;"
            />
            <glyph glyph-name="Ntilde" unicode="&#xd1;"
            />
            <glyph glyph-name="Ograve" unicode="&#xd2;"
            />
            <glyph glyph-name="Oacute" unicode="&#xd3;"
            />
            <glyph glyph-name="Ocircumflex" unicode="&#xd4;"
            />
            <glyph glyph-name="Otilde" unicode="&#xd5;"
            />
            <glyph glyph-name="Odieresis" unicode="&#xd6;"
            />
            <glyph glyph-name="multiply" unicode="&#xd7;"
            />
            <glyph glyph-name="Oslash" unicode="&#xd8;"
            />
            <glyph glyph-name="Ugrave" unicode="&#xd9;"
            />
            <glyph glyph-name="Uacute" unicode="&#xda;"
            />
            <glyph glyph-name="Ucircumflex" unicode="&#xdb;"
            />
            <glyph glyph-name="Udieresis" unicode="&#xdc;" horiz-adv-x="1024"
                   d="M806 669l-161 -161q-16 -17 -40 -17t-40.5 17t-16.5 40.5t17 39.5l161 161l-161 161h402v-402zM218 241l161 161q16 17 40 17t40.5 -16.5t16.5 -40.5t-17 -40l-161 -161l161 -161h-402v402z"/>
            <glyph glyph-name="Yacute" unicode="&#xdd;"
            />
            <glyph glyph-name="Thorn" unicode="&#xde;"
            />
            <glyph glyph-name="germandbls" unicode="&#xdf;" horiz-adv-x="1024"
                   d="M231 793h562q24 0 40.5 -16.5t16.5 -40.5v-562q0 -24 -16.5 -40.5t-40.5 -16.5h-562q-24 0 -40.5 16.5t-16.5 40.5v562q0 24 16.5 40.5t40.5 16.5zM918.5 724.5q8.5 8.5 20 8.5t20 -8.5t8.5 -19.5v-499q0 -12 -8.5 -20.5t-20 -8.5t-20 8.5t-8.5 20.5v499q0 11 8.5 19.5z
M65.5 724.5q8.5 8.5 20 8.5t20 -8.5t8.5 -19.5v-499q0 -12 -8.5 -20.5t-20 -8.5t-20 8.5t-8.5 20.5v499q0 11 8.5 19.5z"/>
            <glyph glyph-name="agrave" unicode="&#xe0;"
            />
            <glyph glyph-name="aacute" unicode="&#xe1;"
            />
            <glyph glyph-name="acircumflex" unicode="&#xe2;"
            />
            <glyph glyph-name="atilde" unicode="&#xe3;"
            />
            <glyph glyph-name="adieresis" unicode="&#xe4;" horiz-adv-x="227"
                   d="M186 57h-144v143h144v-143zM176 625l-33 -348h-62l-29 346v230h124v-228z"/>
            <glyph glyph-name="aring" unicode="&#xe5;"
            />
            <glyph glyph-name="ae" unicode="&#xe6;"
            />
            <glyph glyph-name="ccedilla" unicode="&#xe7;"
            />
            <glyph glyph-name="egrave" unicode="&#xe8;"
            />
            <glyph glyph-name="eacute" unicode="&#xe9;"
            />
            <glyph glyph-name="ecircumflex" unicode="&#xea;"
            />
            <glyph glyph-name="edieresis" unicode="&#xeb;"
            />
            <glyph glyph-name="igrave" unicode="&#xec;"
            />
            <glyph glyph-name="iacute" unicode="&#xed;"
            />
            <glyph glyph-name="icircumflex" unicode="&#xee;"
            />
            <glyph glyph-name="idieresis" unicode="&#xef;"
            />
            <glyph glyph-name="eth" unicode="&#xf0;"
            />
            <glyph glyph-name="ntilde" unicode="&#xf1;"
            />
            <glyph glyph-name="ograve" unicode="&#xf2;"
            />
            <glyph glyph-name="oacute" unicode="&#xf3;"
            />
            <glyph glyph-name="ocircumflex" unicode="&#xf4;"
            />
            <glyph glyph-name="otilde" unicode="&#xf5;"
            />
            <glyph glyph-name="odieresis" unicode="&#xf6;"
            />
            <glyph glyph-name="divide" unicode="&#xf7;"
            />
            <glyph glyph-name="oslash" unicode="&#xf8;"
            />
            <glyph glyph-name="ugrave" unicode="&#xf9;"
            />
            <glyph glyph-name="uacute" unicode="&#xfa;"
            />
            <glyph glyph-name="ucircumflex" unicode="&#xfb;"
            />
            <glyph glyph-name="udieresis" unicode="&#xfc;" horiz-adv-x="1024"
                   d="M730 753l161 161q16 17 40 17t40.5 -16.5t16.5 -40.5t-17 -40l-161 -161l161 -161h-402v402zM294 157l-161 -161q-16 -17 -40 -17t-40.5 17t-16.5 40.5t17 39.5l161 161l-161 161h402v-402z"/>
        </font>
</defs>
</svg>
