<svg xmlns="http://www.w3.org/2000/svg" width="191" height="18" viewBox="0 0 191 18"
     shape-rendering="geometricPrecision">
    <path d="M2 13V2h7.018v2.014H4.36v2.353h4.26v1.918H4.36v2.695h4.756V13m1.88 0V2h4.234c1.11 0 1.964.245 2.572.725.69.553 1.042 1.338 1.042 2.35 0 .83-.25 1.53-.733 2.095-.216.25-.5.462-.85.632.45.138.792.426 1.043.837.16.266.274.642.347 1.144.03.18.082.73.142 1.653.047.58.102.967.177 1.164.044.105.11.237.203.4H16.74c-.08-.18-.13-.383-.166-.626-.01-.13-.05-.608-.108-1.414-.062-.767-.16-1.27-.29-1.528-.16-.353-.413-.583-.74-.673-.168-.056-.412-.08-.718-.08h-1.355V13h-2.367zm2.366-6.096h1.294c.72 0 1.206-.154 1.476-.453.234-.268.344-.633.344-1.095 0-.565-.187-.98-.576-1.244-.233-.152-.627-.23-1.19-.23h-1.35v3.024zM20.92 13V2h2.363v8.96h4.322V13m1.411 0V2h7.016v2.014h-4.656v2.353h4.26v1.918h-4.26v2.695h4.752V13m1.888 0V2h3.924c.78 0 1.38.07 1.805.22.61.216 1.065.564 1.36 1.043.264.43.4.904.4 1.42 0 1.08-.534 1.864-1.582 2.353 1.335.456 2.008 1.368 2.008 2.724 0 1.2-.45 2.092-1.352 2.68-.567.37-1.324.56-2.263.56h-4.3zm2.36-6.55h1.053c.582 0 .993-.086 1.246-.27.33-.246.496-.595.496-1.05 0-.502-.2-.86-.6-1.072-.218-.12-.6-.178-1.142-.178h-1.053v2.57zm0 4.677h1.274c.666 0 1.13-.118 1.4-.334.343-.275.516-.674.516-1.193 0-.612-.233-1.03-.686-1.28-.267-.147-.71-.222-1.33-.222h-1.175v3.03zM47.645 13V2h7.018v2.014h-4.658v2.353h4.258v1.918h-4.258v2.695h4.754V13m1.887 0V2h2.387l3.448 7.08V2h2.266v11h-2.363l-3.475-7.07V13m10.467-2.373v1.836c0 .733-.1 1.308-.296 1.725-.183.382-.503.71-.96.99-.34.214-.73.35-1.16.39v-1.143c.34-.09.594-.27.772-.543.16-.255.244-.542.253-.882H66.96v-2.373h2.416zM72.783 2h2.37l1.31 7.54L77.878 2h2.243l1.415 7.556L82.854 2h2.353L82.73 13h-2.36l-1.385-7.467L77.62 13h-2.38M88.51 2h2.417l3.483 11h-2.453l-.694-2.455h-3.135L87.436 13h-2.418L88.51 2zm.134 6.768h2.134l-1.063-3.8-1.07 3.8zm6.276 1.015h2.376c.07.437.16.75.307.962.275.42.676.642 1.202.642.463 0 .826-.143 1.085-.427.234-.25.34-.562.34-.94 0-.428-.18-.784-.54-1.074-.17-.15-.39-.272-.648-.38a11.755 11.755 0 0 0-.818-.31c-.902-.312-1.548-.627-1.956-.938-.802-.642-1.203-1.47-1.203-2.5 0-.878.28-1.596.843-2.148.617-.61 1.487-.92 2.59-.92 1.365 0 2.408.473 3.092 1.415.32.438.532 1.015.63 1.737h-2.3c-.062-.425-.19-.73-.404-.924-.253-.23-.606-.34-1.038-.34-.37 0-.667.085-.867.26-.244.202-.363.486-.363.85 0 .417.183.75.553 1 .26.192.79.42 1.587.68.932.3 1.65.648 2.157 1.058.745.583 1.115 1.383 1.115 2.388 0 .99-.346 1.81-1.027 2.423-.724.655-1.673.973-2.87.973-1.42 0-2.48-.535-3.178-1.6a4.64 4.64 0 0 1-.666-1.887M112.33 13h-2.63l-3-11h2.47l1.902 7.93 1.89-7.93h2.41m1.194 11V2h7.008v2.014h-4.652v2.353h4.26v1.918h-4.26v2.695h4.758V13m1.884 0V2h4.224c1.105 0 1.972.245 2.567.725.7.553 1.052 1.338 1.052 2.35 0 .83-.248 1.53-.733 2.095-.22.25-.506.462-.856.632.45.138.798.426 1.053.837.16.266.27.642.347 1.144.023.18.072.73.14 1.653.046.58.098.967.18 1.164.045.105.104.237.2.4h-2.44a2.763 2.763 0 0 1-.157-.626c-.02-.13-.06-.608-.112-1.414-.06-.767-.164-1.27-.297-1.528-.155-.353-.408-.583-.738-.673-.165-.056-.404-.08-.717-.08h-1.35V13h-2.36zm2.36-6.096h1.3c.714 0 1.2-.154 1.463-.453.235-.268.357-.633.357-1.095 0-.565-.19-.98-.58-1.244-.234-.152-.634-.23-1.202-.23h-1.34v3.024zM135.48 13V2h3.933c.767 0 1.374.07 1.802.22.606.216 1.065.564 1.354 1.043.27.43.394.904.394 1.42 0 1.08-.524 1.864-1.57 2.353 1.337.456 2 1.368 2 2.724 0 1.2-.455 2.092-1.355 2.68-.564.37-1.315.56-2.255.56h-4.305zm2.36-6.55h1.06c.58 0 .99-.086 1.246-.27.33-.246.495-.595.495-1.05 0-.502-.202-.86-.606-1.072-.214-.12-.584-.178-1.134-.178h-1.06v2.57zm0 4.677h1.274c.67 0 1.128-.118 1.41-.334.345-.275.513-.674.513-1.193 0-.612-.232-1.03-.68-1.28-.274-.147-.726-.222-1.333-.222h-1.184v3.03zM145.11 13V2h2.363v11m2.144 0V2h2.387l3.448 7.08V2h2.262v11h-2.366l-3.475-7.07V13m7.991 0V2h3.39c1.496 0 2.677.398 3.526 1.192 1.042.972 1.564 2.405 1.564 4.308 0 1.815-.49 3.23-1.484 4.234-.536.55-1.15.913-1.853 1.074-.506.138-1.085.19-1.764.19h-3.38zm2.362-2.02h1.054c.832 0 1.445-.188 1.83-.587.587-.62.877-1.604.877-2.934 0-1.108-.242-1.978-.744-2.608-.43-.56-1.114-.838-2.033-.838h-.983v6.966zm7.801 2.02V2h7.028v2.014h-4.664v2.353h4.26v1.918h-4.26v2.695h4.76V13m3.836 0V4.014h-2.66V2h7.702v2.014h-2.68V13m5.691-2.373V13h-2.42v-2.373h1.197"
          fill="#fff"/>
</svg>
